<svg width="29" height="33" viewBox="0 0 29 33" fill="none" xmlns="http://www.w3.org/2000/svg">
<path d="M8.62703 7.61687C9.60652 7.61687 10.7886 7.81648 12.1733 8.21625C13.5707 8.61575 14.4981 8.81564 14.9554 8.81564C15.5434 8.81564 16.5033 8.59018 17.8356 8.13872C19.1676 7.6878 20.3241 7.46235 21.3035 7.46235C22.9106 7.46235 24.3409 7.88741 25.5949 8.7381C26.2999 9.22751 26.9993 9.89151 27.6913 10.7293C26.6463 11.6058 25.8822 12.3856 25.399 13.0685C24.524 14.3058 24.0865 15.6723 24.0865 17.1669C24.0865 18.8036 24.5499 20.2793 25.477 21.5941C26.405 22.9083 27.4628 23.7398 28.6518 24.0879C28.1549 25.6732 27.3321 27.3306 26.1829 29.0573C24.4454 31.6473 22.7211 32.9423 21.0101 32.9423C20.3307 32.9423 19.3903 32.7306 18.1887 32.3044C16.9999 31.8782 15.9942 31.6665 15.1714 31.6665C14.3482 31.6665 13.3879 31.8865 12.2911 32.3236C11.2071 32.7745 10.3252 33 9.64581 33C7.59488 33 5.58351 31.2871 3.61116 27.8585C1.63825 24.4684 0.651794 21.1429 0.651794 17.8823C0.651794 14.8535 1.40278 12.3856 2.90504 10.478C4.42011 8.57038 6.32698 7.61687 8.62592 7.61687M20.9708 0C21.0229 0.167718 21.0558 0.316189 21.0689 0.44459C21.0817 0.573815 21.0884 0.70249 21.0884 0.831441C21.0884 1.65628 20.8925 2.55866 20.5004 3.5383C20.1086 4.51766 19.4884 5.42636 18.639 6.26412C17.9078 6.97266 17.1827 7.44915 16.4643 7.6944C16.0073 7.83627 15.3149 7.9457 14.3875 8.02296C14.414 6.06396 14.9298 4.36891 15.9357 2.93864C16.9545 1.50809 18.6331 0.528449 20.9711 0.000274944" fill="black"/>
</svg>
