<svg width="20" height="20" viewBox="0 0 20 20" fill="none" xmlns="http://www.w3.org/2000/svg">
<path d="M0 1.6625C0 1.18453 0.374705 0.800003 0.84046 0.800003H2.43383C3.20426 0.800003 3.88713 1.26 4.2058 1.95H18.5987C19.5197 1.95 20.1921 2.84844 19.9504 3.76125L18.5146 9.23454C18.217 10.363 17.2189 11.15 16.0808 11.15H5.97778L6.16688 12.1742C6.24392 12.5803 6.59061 12.875 6.99333 12.875H17.0894C17.5551 12.875 17.9298 13.2595 17.9298 13.7375C17.9298 14.2155 17.5551 14.6 17.0894 14.6H6.99333C5.78167 14.6 4.7416 13.7159 4.51748 12.4977L2.71049 2.7586C2.68597 2.62203 2.57041 2.525 2.43383 2.525H0.84046C0.374705 2.525 0 2.14047 0 1.6625ZM4.48246 17.475C4.48246 17.2485 4.52593 17.0242 4.61041 16.8149C4.69488 16.6056 4.8187 16.4154 4.97479 16.2552C5.13087 16.0951 5.31618 15.968 5.52012 15.8813C5.72406 15.7946 5.94263 15.75 6.16338 15.75C6.38412 15.75 6.6027 15.7946 6.80664 15.8813C7.01058 15.968 7.19588 16.0951 7.35197 16.2552C7.50806 16.4154 7.63187 16.6056 7.71635 16.8149C7.80082 17.0242 7.8443 17.2485 7.8443 17.475C7.8443 17.7015 7.80082 17.9258 7.71635 18.1351C7.63187 18.3444 7.50806 18.5346 7.35197 18.6948C7.19588 18.8549 7.01058 18.982 6.80664 19.0687C6.6027 19.1554 6.38412 19.2 6.16338 19.2C5.94263 19.2 5.72406 19.1554 5.52012 19.0687C5.31618 18.982 5.13087 18.8549 4.97479 18.6948C4.8187 18.5346 4.69488 18.3444 4.61041 18.1351C4.52593 17.9258 4.48246 17.7015 4.48246 17.475ZM16.2489 15.75C16.6947 15.75 17.1223 15.9317 17.4375 16.2552C17.7527 16.5787 17.9298 17.0175 17.9298 17.475C17.9298 17.9325 17.7527 18.3713 17.4375 18.6948C17.1223 19.0183 16.6947 19.2 16.2489 19.2C15.8031 19.2 15.3755 19.0183 15.0603 18.6948C14.7451 18.3713 14.568 17.9325 14.568 17.475C14.568 17.0175 14.7451 16.5787 15.0603 16.2552C15.3755 15.9317 15.8031 15.75 16.2489 15.75Z" fill="white"/>
</svg>
