<svg width="40" height="40" viewBox="0 0 40 40" fill="none" xmlns="http://www.w3.org/2000/svg">
<path d="M20 7.77006C16.3798 7.77006 13.4661 10.6838 13.4661 14.304C13.4661 17.9242 16.3798 20.8379 20 20.8379C23.6202 20.8379 26.5339 17.9242 26.5339 14.304C26.5343 10.684 23.6202 7.77006 20 7.77006ZM20 0C8.96289 0 0 8.96201 0 20C0 31.038 8.96201 40 20 40C31.038 40 40 31.038 40 20C40 8.96201 31.038 0 20 0ZM33.4654 29.933C30.7725 25.2533 25.7833 22.1184 20 22.1184C14.2164 22.1184 9.18372 25.2529 6.49082 29.933C4.45989 27.1517 3.22385 23.7519 3.22385 20.0438C3.22385 10.8163 10.7293 3.26688 20.0008 3.26688C29.2721 3.26688 36.7777 10.7723 36.7777 20.0438C36.777 23.7078 35.5405 27.1515 33.4654 29.933Z" fill="white"/>
</svg>
