<svg width="21" height="15" viewBox="0 0 21 15" fill="none" xmlns="http://www.w3.org/2000/svg">
<path d="M1.7823 0.523491C1.42263 0.635246 1.05142 0.920404 0.871807 1.2288C0.633509 1.62961 0.645057 1.275 0.656926 7.60427L0.668635 13.382L0.797595 13.6403C0.95393 13.9601 1.20774 14.2147 1.52434 14.3765L1.76264 14.5H19.5034L19.7301 14.3959C20.1521 14.1994 20.4491 13.8679 20.5781 13.444C20.6563 13.1933 20.6563 13.1086 20.6485 7.38855L20.6368 1.58766L20.5117 1.33325C20.3593 1.02483 20.0779 0.755116 19.7653 0.612631L19.5425 0.508524L10.7114 0.500876C5.85412 0.496661 1.83698 0.508211 1.78229 0.523663L1.7823 0.523491ZM19.3395 1.42923C19.4762 1.48323 19.7185 1.72999 19.7185 1.81474C19.7185 1.89185 11.1139 8.45992 10.9223 8.52545C10.727 8.5949 10.4495 8.59865 10.2618 8.5331C10.0781 8.46754 1.58667 1.95745 1.58667 1.88033C1.58667 1.77248 1.78999 1.53352 1.95013 1.45643C2.11422 1.37558 2.11422 1.37558 10.6641 1.37558C17.757 1.37543 19.2339 1.38323 19.3393 1.42943L19.3395 1.42923ZM19.7422 12.8117C19.7188 12.8387 13.3688 7.96252 13.3688 7.92057C13.3688 7.90122 14.8028 6.79507 16.5535 5.46136L19.7383 3.04071L19.75 7.92061C19.7538 10.6033 19.75 12.8041 19.7422 12.8117L19.7422 12.8117ZM4.82245 5.57312C6.52629 6.87219 7.91732 7.94758 7.91732 7.96288C7.91336 7.98598 1.68076 12.7928 1.61838 12.8156C1.60271 12.8233 1.58721 10.6417 1.58721 7.96648C1.58721 3.28717 1.59116 3.10616 1.65762 3.15611C1.69655 3.18311 3.1189 4.27022 4.82261 5.573L4.82245 5.57312ZM15.9831 11.1275C17.9566 12.6385 19.2617 13.6638 19.2343 13.6792C19.1758 13.7179 2.1069 13.7179 2.07976 13.6792C2.06789 13.6561 8.49617 8.68386 8.67967 8.57598C8.71084 8.55662 8.8868 8.67244 9.15248 8.88439C9.38698 9.06935 9.69172 9.27366 9.8324 9.3353C10.0747 9.44706 10.1098 9.45111 10.5944 9.45111C11.2509 9.44721 11.372 9.40101 12.0363 8.89236C12.4779 8.55694 12.5521 8.51465 12.6146 8.55694C12.6537 8.57973 14.1659 9.74002 15.983 11.1276L15.9831 11.1275Z" fill="#D0D0D0"/>
</svg>
