<svg width="34" height="33" viewBox="0 0 34 33" fill="none" xmlns="http://www.w3.org/2000/svg">
<path d="M33.1518 16.5C33.1518 7.3873 25.7645 0 16.6518 0C7.53909 0 0.151794 7.3873 0.151794 16.5C0.151794 24.7356 6.18561 31.5617 14.0737 32.7996V21.2695H9.88422V16.5H14.0737V12.8648C14.0737 8.72953 16.537 6.44531 20.306 6.44531C22.1112 6.44531 23.9995 6.76758 23.9995 6.76758V10.8281H21.9188C19.8691 10.8281 19.2299 12.1 19.2299 13.4049V16.5H23.8061L23.0745 21.2695H19.2299V32.7996C27.118 31.5617 33.1518 24.7356 33.1518 16.5Z" fill="#1877F2"/>
<path d="M23.0745 21.2695L23.8061 16.5H19.2299V13.4049C19.2299 12.1 19.8691 10.8281 21.9188 10.8281H23.9995V6.76758C23.9995 6.76758 22.1112 6.44531 20.306 6.44531C16.537 6.44531 14.0737 8.72953 14.0737 12.8648V16.5H9.88422V21.2695H14.0737V32.7996C14.9137 32.9314 15.7747 33 16.6518 33C17.5289 33 18.3899 32.9314 19.2299 32.7996V21.2695H23.0745Z" fill="white"/>
</svg>
