<svg width="22" height="22" viewBox="0 0 22 22" fill="none" xmlns="http://www.w3.org/2000/svg">
<path d="M11 5.25C11 5.25 11 5.25 10.1556 4.1C9.17778 2.766 7.73333 1.8 6 1.8C3.23333 1.8 1 4.1115 1 6.975C1 8.0445 1.31111 9.0335 1.84444 9.85C2.74444 11.2415 11 20.2 11 20.2M11 5.25C11 5.25 11 5.25 11.8444 4.1C12.8222 2.766 14.2667 1.8 16 1.8C18.7667 1.8 21 4.1115 21 6.975C21 8.0445 20.6889 9.0335 20.1556 9.85C19.2556 11.2415 11 20.2 11 20.2" stroke="white" stroke-width="2" stroke-linecap="round" stroke-linejoin="round"/>
</svg>
