<svg width="33" height="33" viewBox="0 0 33 33" fill="none" xmlns="http://www.w3.org/2000/svg">
<g clip-path="url(#clip0_51_56)">
<path d="M32.6365 16.8087C32.6365 15.4567 32.5277 14.4701 32.292 13.447H16.9705V19.5492H25.9639C25.7827 21.0657 24.8035 23.3495 22.6277 24.8841L22.5972 25.0884L27.4415 28.87L27.7772 28.9037C30.8595 26.0352 32.6365 21.8148 32.6365 16.8087Z" fill="#4285F4"/>
<path d="M16.9705 32.8866C21.3765 32.8866 25.0754 31.4249 27.7772 28.9037L22.6277 24.8841C21.2497 25.8525 19.4002 26.5285 16.9705 26.5285C12.6552 26.5285 8.99254 23.6601 7.68692 19.6955L7.49554 19.7118L2.45829 23.64L2.39242 23.8245C5.07592 29.1959 10.588 32.8866 16.9705 32.8866Z" fill="#34A853"/>
<path d="M7.68692 19.6955C7.34242 18.6723 7.14304 17.576 7.14304 16.4433C7.14304 15.3105 7.34242 14.2143 7.66879 13.1912L7.65967 12.9733L2.55929 8.98206L2.39242 9.06204C1.28642 11.291 0.651794 13.7941 0.651794 16.4433C0.651794 19.0925 1.28642 21.5955 2.39242 23.8245L7.68692 19.6955Z" fill="#FBBC05"/>
<path d="M16.9705 6.35804C20.0348 6.35804 22.1018 7.69177 23.2804 8.80634L27.8859 4.27526C25.0574 1.62607 21.3765 0 16.9705 0C10.588 0 5.07592 3.69058 2.39242 9.06203L7.66879 13.1912C8.99254 9.22652 12.6552 6.35804 16.9705 6.35804Z" fill="#EB4335"/>
</g>
<defs>
<clipPath id="clip0_51_56">
<rect width="32" height="33" fill="white" transform="translate(0.651794)"/>
</clipPath>
</defs>
</svg>
