<svg width="34" height="33" viewBox="0 0 34 33" fill="none" xmlns="http://www.w3.org/2000/svg">
<path d="M16.6518 33C25.7645 33 33.1518 25.6127 33.1518 16.5C33.1518 7.3873 25.7645 0 16.6518 0C7.5391 0 0.151794 7.3873 0.151794 16.5C0.151794 25.6127 7.5391 33 16.6518 33Z" fill="#007AB9"/>
<path d="M26.5104 17.8276V24.6302H22.5664V18.2835C22.5664 16.69 21.997 15.6017 20.569 15.6017C19.4792 15.6017 18.8319 16.3344 18.546 17.0438C18.4421 17.2973 18.4154 17.6494 18.4154 18.005V24.6299H14.4711C14.4711 24.6299 14.5241 13.8807 14.4711 12.7681H18.4157V14.449C18.4077 14.4622 18.3966 14.4752 18.3895 14.4878H18.4157V14.449C18.9398 13.6425 19.8746 12.4895 21.9702 12.4895C24.565 12.4895 26.5104 14.1849 26.5104 17.8276ZM10.3451 7.0502C8.99593 7.0502 8.11325 7.93582 8.11325 9.09939C8.11325 10.2383 8.97034 11.1495 10.2933 11.1495H10.3189C11.6946 11.1495 12.5499 10.2383 12.5499 9.09939C12.5237 7.93582 11.6946 7.0502 10.3451 7.0502ZM8.34767 24.6302H12.2905V12.7681H8.34767V24.6302Z" fill="#F1F2F2"/>
</svg>
