<svg width="140" height="41" viewBox="0 0 140 41" fill="none" xmlns="http://www.w3.org/2000/svg">
<path d="M115.495 1.50929C115.85 1.49047 116.199 1.49317 116.554 1.50263C116.748 1.50401 116.748 1.50401 116.947 1.50542C117.361 1.50907 117.775 1.51725 118.19 1.52554C118.471 1.52881 118.752 1.53178 119.032 1.53445C119.721 1.54164 120.41 1.55255 121.098 1.56627C121.131 1.67113 121.163 1.77598 121.196 1.88401C121.25 1.99424 121.304 2.10447 121.359 2.21804C121.441 2.23844 121.523 2.25883 121.608 2.27985C121.881 2.3484 121.881 2.3484 122.104 2.65067C122.178 2.78381 122.252 2.91696 122.328 3.05414C122.454 3.27741 122.454 3.27741 122.582 3.50519C122.671 3.66815 122.761 3.83113 122.85 3.99411C122.943 4.16117 123.037 4.32813 123.13 4.495C123.32 4.83399 123.509 5.17345 123.697 5.51336C124.005 6.06923 124.318 6.62211 124.632 7.17477C124.839 7.53927 125.045 7.90423 125.25 8.26931C125.529 8.76267 125.808 9.25553 126.087 9.74801C126.93 11.233 127.759 12.7248 128.573 14.2259C128.902 14.8314 129.236 15.434 129.571 16.0355C129.7 15.9925 129.829 15.9495 129.962 15.9052C129.97 15.8281 129.978 15.7509 129.986 15.6715C129.997 15.5685 130.008 15.4655 130.019 15.3593C130.035 15.2074 130.035 15.2074 130.052 15.0523C130.078 14.8474 130.111 14.6432 130.151 14.4408C130.212 14.1372 130.262 13.8358 130.308 13.5298C130.467 12.4656 130.643 11.4274 130.923 10.3871C131.052 9.84202 131.1 9.29364 131.136 8.73573C131.222 8.73573 131.308 8.73573 131.396 8.73573C131.395 8.66281 131.393 8.58988 131.392 8.51474C131.359 5.5894 131.359 5.5894 131.787 4.3037C131.916 4.23918 131.916 4.23918 132.048 4.17335C132.131 3.92428 132.131 3.92428 132.183 3.62342C132.205 3.51269 132.227 3.40195 132.25 3.28786C132.272 3.17141 132.294 3.05497 132.317 2.93499C132.362 2.70543 132.406 2.47595 132.452 2.24656C132.471 2.14431 132.491 2.04206 132.511 1.93671C132.57 1.69663 132.57 1.69663 132.7 1.56627C132.9 1.55413 133.101 1.55096 133.301 1.55148C133.429 1.55149 133.557 1.5515 133.689 1.55151C133.828 1.55218 133.967 1.55285 134.11 1.55355C134.322 1.55382 134.322 1.55382 134.539 1.5541C134.993 1.55484 135.447 1.55647 135.902 1.55813C136.209 1.55878 136.516 1.55938 136.823 1.55991C137.578 1.56135 138.333 1.5636 139.087 1.56627C139.044 2.12549 139.001 2.68471 138.957 3.26087C138.871 3.26087 138.785 3.26087 138.696 3.26087C138.698 3.34405 138.699 3.42723 138.701 3.51293C138.702 3.62064 138.703 3.72835 138.704 3.83932C138.706 3.94669 138.707 4.05407 138.709 4.16469C138.696 4.43406 138.696 4.43406 138.566 4.56441C138.533 4.83852 138.508 5.11358 138.486 5.3888C138.471 5.56388 138.457 5.73896 138.442 5.91403C138.434 6.00634 138.426 6.09864 138.419 6.19374C138.266 8.02081 138.028 9.80689 137.653 11.6035C137.567 11.6035 137.481 11.6035 137.393 11.6035C137.378 11.7265 137.364 11.8495 137.349 11.9762C137.251 12.7764 137.148 13.5532 136.936 14.3328C136.682 15.2775 136.585 16.2383 136.48 17.2087C136.394 17.2087 136.308 17.2087 136.219 17.2087C136.212 17.3582 136.212 17.3582 136.205 17.5107C136.144 18.4935 135.994 19.4252 135.789 20.3876C135.667 21.0201 135.606 21.6501 135.568 22.2925C135.482 22.2925 135.396 22.2925 135.307 22.2925C135.31 22.3782 135.313 22.4639 135.316 22.5522C135.332 23.4 135.284 24.2288 135.193 25.0707C135.183 25.1687 135.172 25.2668 135.162 25.3677C135.092 25.9748 134.969 26.5326 134.786 27.1156C134.7 27.1156 134.613 27.1156 134.525 27.1156C134.509 27.2393 134.493 27.363 134.476 27.4904C134.394 27.8977 134.394 27.8977 134.134 28.1585C133.895 28.1986 133.895 28.1986 133.602 28.2087C133.492 28.2129 133.383 28.2171 133.27 28.2214C132.767 28.233 132.265 28.2437 131.762 28.2497C131.497 28.254 131.233 28.2612 130.968 28.2711C128.761 28.3538 128.761 28.3538 128.186 27.8705C127.987 27.5345 127.863 27.2259 127.746 26.8549C127.66 26.7689 127.574 26.6828 127.486 26.5942C127.293 26.224 127.111 25.8504 126.931 25.474C126.674 24.9481 126.382 24.4717 126.052 23.9871C125.95 23.8075 125.851 23.6258 125.759 23.4413C125.715 23.3561 125.671 23.2709 125.626 23.1831C125.53 22.9443 125.53 22.9443 125.53 22.5532C125.444 22.5532 125.358 22.5532 125.27 22.5532C124.748 21.6733 124.748 21.6733 124.748 21.3801C124.619 21.3801 124.49 21.3801 124.357 21.3801C124.313 21.2969 124.268 21.2137 124.222 21.128C123.17 19.1655 122.086 17.2329 120.931 15.3293C120.859 15.2097 120.786 15.0901 120.712 14.9669C120.57 14.7327 120.428 14.4989 120.285 14.2655C120.221 14.1601 120.157 14.0548 120.091 13.9463C120.034 13.8526 119.977 13.7588 119.918 13.6622C119.795 13.4285 119.795 13.4285 119.795 13.1678C119.709 13.1678 119.623 13.1678 119.534 13.1678C119.531 13.2553 119.527 13.3429 119.524 13.4331C119.472 14.3571 119.347 15.2518 119.184 16.1618C119.15 16.3539 119.15 16.3539 119.115 16.5499C119.065 16.8331 119.015 17.1164 118.964 17.3996C118.878 17.8868 118.791 18.3742 118.705 18.8615C118.531 19.8454 118.357 20.8291 118.182 21.8128C118.099 22.2805 118.016 22.7482 117.933 23.216C117.771 24.1248 117.61 25.0336 117.448 25.9424C117.319 25.9424 117.19 25.9424 117.057 25.9424C116.971 26.6737 116.885 27.405 116.797 28.1585C115.871 28.1617 114.945 28.164 114.019 28.1656C113.704 28.1663 113.389 28.1672 113.074 28.1683C112.622 28.1699 112.17 28.1706 111.718 28.1712C111.576 28.1719 111.434 28.1725 111.288 28.1732C111.092 28.1732 111.092 28.1732 110.892 28.1733C110.719 28.1737 110.719 28.1737 110.542 28.1741C110.279 28.1585 110.279 28.1585 110.149 28.0281C110.052 25.3918 110.657 22.7767 111.134 20.199C111.22 19.7274 111.306 19.2554 111.391 18.7834C111.881 16.063 112.396 13.3475 112.93 10.6354C113.234 9.09224 113.526 7.54736 113.799 5.9983C113.992 5.93378 113.992 5.93378 114.19 5.86795C114.196 5.75318 114.202 5.63842 114.209 5.52017C114.219 5.36877 114.228 5.21737 114.239 5.06139C114.248 4.91167 114.257 4.76195 114.266 4.60769C114.317 4.19453 114.419 3.90105 114.581 3.52158C114.649 3.19673 114.703 2.87167 114.755 2.54393C115 1.61673 115 1.61673 115.495 1.50929Z" fill="#46B23E"/>
<path d="M29.4192 3.9045C29.5186 3.99322 29.6181 4.08194 29.7206 4.17335C29.5226 4.61622 29.264 4.95758 28.9548 5.33024C28.8503 5.45643 28.7457 5.58263 28.6381 5.71265C28.3304 6.07888 28.0177 6.44055 27.7045 6.80207C26.9445 7.67996 26.2312 8.57767 25.5493 9.51786C25.1709 9.33923 24.8394 9.13218 24.4983 8.89053C23.8372 8.44728 23.1587 8.11902 22.4208 7.82326C22.2981 7.77167 22.1755 7.72008 22.0491 7.66693C19.9169 6.88183 17.1423 7.10293 15.0824 8.03378C14.0874 8.51709 13.2819 9.10637 12.5139 9.90892C12.422 9.99831 12.3301 10.0877 12.2354 10.1798C10.4117 12.0556 9.96738 14.4974 10.001 17.0117C10.0507 18.4691 10.5457 19.9486 11.606 20.9885C12.278 21.5396 13.0187 21.9535 13.8174 22.2925C13.929 22.3404 14.0406 22.3883 14.1555 22.4377C14.7959 22.6044 15.4149 22.603 16.0742 22.6021C16.2121 22.6022 16.35 22.6023 16.492 22.6023C17.7268 22.5853 19.0809 22.4634 20.2048 21.9015C20.3011 21.5674 20.3011 21.5674 20.3682 21.1611C20.3962 21.0104 20.4242 20.8596 20.453 20.7044C20.4813 20.5456 20.5096 20.3868 20.5388 20.2232C20.5958 19.9112 20.653 19.5992 20.7104 19.2873C20.7354 19.1482 20.7603 19.009 20.786 18.8657C20.8565 18.5123 20.8565 18.5123 20.9869 18.1212C19.1802 18.1212 17.3735 18.1212 15.512 18.1212C15.7687 16.3244 16.1611 14.5486 16.5549 12.7767C20.4264 12.7767 24.2979 12.7767 28.2867 12.7767C27.9857 15.1847 27.9857 15.1847 27.8376 16.0659C27.8206 16.169 27.8036 16.2721 27.786 16.3783C27.6315 17.3088 27.4704 18.2383 27.3073 19.1674C27.1984 19.7879 27.0917 20.4086 26.9901 21.0303C26.8907 21.6379 26.7859 22.2444 26.6773 22.8504C26.6372 23.0797 26.5989 23.3092 26.5627 23.5391C26.2796 25.3209 26.2796 25.3209 25.7643 25.8894C25.4393 26.1211 25.1293 26.2982 24.7672 26.4639C24.595 26.5585 24.423 26.6534 24.2513 26.749C24.0847 26.8296 23.9171 26.9083 23.7488 26.9853C23.6555 27.0282 23.5623 27.0711 23.4663 27.1152C19.0543 29.0879 14.0105 29.7145 9.40476 27.9914C6.65892 26.8906 4.5912 24.9026 3.36265 22.209C1.91023 18.8015 2.20231 14.9639 3.40543 11.522C3.52414 11.2423 3.65008 10.9656 3.78019 10.691C3.85228 10.5384 3.85228 10.5384 3.92582 10.3826C4.66623 8.83682 5.45789 7.49363 6.64798 6.25901C6.77261 6.12429 6.8972 5.98953 7.02173 5.85471C7.93156 4.88977 8.92956 4.11626 10.0372 3.39123C10.1583 3.30973 10.2795 3.22823 10.4043 3.14427C12.0809 2.08773 14.0903 1.39695 16.0335 1.04486C16.1487 1.01848 16.264 0.992095 16.3828 0.964915C20.6096 0.0848139 26.065 1.15947 29.4192 3.9045Z" fill="white"/>
<path d="M56.9918 1.28989C57.1188 1.29018 57.2459 1.29047 57.3768 1.29076C57.5204 1.29077 57.6639 1.29078 57.8118 1.29079C57.9679 1.29147 58.1241 1.29214 58.285 1.29283C58.4439 1.29302 58.6029 1.2932 58.7666 1.29339C59.2767 1.29412 59.7867 1.29576 60.2968 1.29741C60.6416 1.29807 60.9864 1.29866 61.3312 1.2992C62.1786 1.30064 63.026 1.30282 63.8734 1.30556C63.7046 2.32562 63.5314 3.34478 63.3535 4.36328C63.3042 4.64633 63.2549 4.92939 63.2057 5.21245C63.1803 5.35815 63.155 5.50385 63.1288 5.65397C62.7402 7.88794 62.3564 10.1218 62.0072 12.3623C61.8425 13.4014 61.6388 14.428 61.4211 15.4571C61.0424 17.2814 60.8636 19.0578 61.7551 20.7772C62.5547 21.71 63.4111 22.3027 64.6514 22.4774C66.1429 22.5457 67.829 22.1337 68.9638 21.1265C70.6984 19.298 71.1743 17.1039 71.6131 14.7076C71.6629 14.4437 71.7129 14.1799 71.763 13.9162C71.9168 13.1024 72.0666 12.2878 72.216 11.4732C72.2633 11.2168 72.3106 10.9605 72.3579 10.7041C72.7238 8.71935 73.0811 6.73301 73.436 4.7462C73.509 4.33812 73.5823 3.93011 73.6557 3.52211C73.7057 3.24308 73.7552 2.96395 73.8045 2.68481C73.834 2.52086 73.8635 2.35691 73.8938 2.188C73.9193 2.04497 73.9447 1.90194 73.9709 1.75458C74.041 1.43592 74.041 1.43592 74.1713 1.30556C74.3914 1.29337 74.6119 1.29025 74.8323 1.29076C74.9732 1.29077 75.1141 1.29078 75.2593 1.29079C75.4893 1.2918 75.4893 1.2918 75.7239 1.29283C75.8799 1.29302 76.036 1.2932 76.1968 1.29339C76.6975 1.29412 77.1983 1.29576 77.699 1.29741C78.0376 1.29807 78.3761 1.29866 78.7146 1.2992C79.5466 1.30064 80.3785 1.30282 81.2104 1.30556C81.1452 1.99362 81.0793 2.67889 80.967 3.36118C80.9459 3.48947 80.9248 3.61777 80.9031 3.74995C80.8697 3.94743 80.8697 3.94743 80.8357 4.1489C80.8125 4.28711 80.7893 4.42532 80.7654 4.56772C80.625 5.39023 80.4652 6.2028 80.2655 7.01322C80.1668 7.43566 80.0832 7.85803 80.0041 8.28458C79.9879 8.37195 79.9717 8.45931 79.9549 8.54932C79.8136 9.31143 79.675 10.074 79.5361 10.8366C79.4147 11.5019 79.2925 12.1671 79.1702 12.8322C79.1073 13.1748 79.0449 13.5176 78.983 13.8604C78.1181 18.6337 76.9591 23.521 72.8077 26.5448C69.5078 28.8069 65.1466 29.4982 61.2337 28.7939C60.9383 28.7205 60.6448 28.6389 60.3538 28.5495C60.2271 28.5107 60.2271 28.5107 60.0978 28.471C57.7676 27.7348 55.9189 26.4311 54.7486 24.2478C54.0549 22.7383 53.6748 21.2466 53.665 19.5877C53.6643 19.4885 53.6636 19.3894 53.6628 19.2872C53.689 17.1223 54.139 14.9784 54.5291 12.8572C54.584 12.5556 54.6389 12.2541 54.6937 11.9526C54.8368 11.1655 54.9808 10.3786 55.1249 9.59173C55.3562 8.32808 55.5862 7.06419 55.8164 5.80033C55.8966 5.36077 55.977 4.92126 56.0575 4.48175C56.1067 4.21225 56.156 3.94275 56.2052 3.67325C56.2275 3.55203 56.2497 3.43081 56.2727 3.30591C56.363 2.81052 56.4497 2.31684 56.5151 1.8175C56.5926 1.31162 56.5926 1.31162 56.9918 1.28989Z" fill="white"/>
<path d="M34.5709 1.28989C34.698 1.29018 34.825 1.29047 34.956 1.29076C35.0995 1.29077 35.243 1.29078 35.3909 1.29079C35.5471 1.29147 35.7032 1.29214 35.8641 1.29283C36.023 1.29302 36.182 1.2932 36.3457 1.29339C36.8558 1.29412 37.3659 1.29576 37.8759 1.29741C38.2207 1.29807 38.5655 1.29866 38.9103 1.2992C39.7577 1.30064 40.6051 1.30282 41.4525 1.30556C41.4716 1.97771 41.4037 2.60105 41.2748 3.25832C41.2555 3.36026 41.2363 3.4622 41.2164 3.56723C41.1519 3.90791 41.0863 4.24837 41.0207 4.58885C40.9255 5.09 40.8308 5.59126 40.7361 6.0925C40.7106 6.2269 40.6851 6.36131 40.6588 6.49978C40.4449 7.62976 40.2368 8.76076 40.0303 9.89211C40.0143 9.9799 39.9983 10.0677 39.9817 10.1581C39.8372 10.9496 39.6929 11.7411 39.5489 12.5327C39.4589 13.0272 39.3686 13.5216 39.2782 14.0161C39.2515 14.1633 39.2248 14.3106 39.1973 14.4623C39.0528 15.2519 38.8935 16.0351 38.7151 16.8177C38.5774 17.5487 38.4682 18.2845 38.3602 19.0204C38.3351 19.1908 38.3351 19.1908 38.3095 19.3645C38.2765 19.589 38.244 19.8136 38.212 20.0382C38.1965 20.1441 38.1811 20.25 38.1651 20.3591C38.1451 20.4988 38.1451 20.4988 38.1247 20.6413C38.0346 21.1516 37.915 21.6563 37.8026 22.1622C42.1903 22.1622 46.578 22.1622 51.0987 22.1622C50.776 24.2595 50.3417 26.3384 49.9255 28.4192C43.1288 28.4192 36.3322 28.4192 29.3296 28.4192C30.078 24.0784 30.078 24.0784 30.3745 22.4458C30.4083 22.2587 30.4421 22.0716 30.476 21.8844C30.5464 21.4948 30.617 21.1052 30.6876 20.7156C30.7993 20.0997 30.9107 19.4838 31.0221 18.8679C31.1533 18.1421 31.2846 17.4164 31.416 16.6906C31.6839 15.2101 31.9511 13.7296 32.2177 12.2489C32.2865 11.8672 32.3553 11.4856 32.4241 11.1039C32.6718 9.72934 32.917 8.35433 33.1601 6.97892C33.2657 6.38158 33.3717 5.78429 33.4776 5.18699C33.5646 4.69498 33.6511 4.20286 33.7375 3.71074C33.7903 3.4126 33.8432 3.11447 33.896 2.81634C33.9202 2.67806 33.9443 2.53978 33.9691 2.39731C34.0026 2.20924 34.0026 2.20924 34.0368 2.01738C34.0562 1.90765 34.0755 1.79792 34.0954 1.68486C34.1767 1.33129 34.2036 1.30989 34.5709 1.28989Z" fill="white"/>
<path d="M108.194 18.2515C108.107 18.5957 108.021 18.9398 107.933 19.2944C107.847 19.2944 107.761 19.2944 107.672 19.2944C107.672 19.4664 107.672 19.6385 107.672 19.8158C107.586 19.8158 107.5 19.8158 107.411 19.8158C107.325 20.1169 107.239 20.418 107.151 20.7283C107.065 20.7283 106.979 20.7283 106.89 20.7283C106.75 21.074 106.617 21.417 106.499 21.7711C106.413 21.8141 106.327 21.8571 106.238 21.9014C106.195 22.0305 106.152 22.1595 106.108 22.2925C105.855 22.5777 105.855 22.5777 105.586 22.8139C105.5 22.8139 105.414 22.8139 105.326 22.8139C105.326 22.943 105.326 23.072 105.326 23.205C105.121 23.4153 105.121 23.4153 104.845 23.6368C104.499 23.9253 104.19 24.2058 103.908 24.5574C103.631 24.8996 103.631 24.8996 103.37 25.0299C103.338 25.1072 103.306 25.1845 103.273 25.2642C103.043 25.6686 102.705 25.8652 102.319 26.1054C102.239 26.1559 102.159 26.2064 102.076 26.2585C100.122 27.4581 97.5025 28.785 95.1581 28.6798C95.0291 28.6153 95.0291 28.6153 94.8974 28.5495C94.6935 28.54 94.4891 28.5386 94.2849 28.5413C94.0981 28.543 94.0981 28.543 93.9076 28.5447C93.7079 28.5471 93.7079 28.5471 93.5043 28.5495C90.1491 28.5654 90.1491 28.5654 89.0315 28.0281C88.6566 27.9608 88.2828 27.9069 87.9047 27.8616C87.5976 27.7674 87.5976 27.7674 87.425 27.498C87.3959 27.4148 87.3669 27.3316 87.3369 27.2459C88.2128 26.2814 89.0879 25.324 90.0418 24.4352C90.3497 24.1348 90.3497 24.1348 90.498 23.759C90.8444 23.1157 91.3714 22.6602 91.8993 22.1622C91.9638 22.2912 91.9638 22.2912 92.0297 22.4229C91.9009 22.7516 91.9009 22.7516 91.7002 23.1612C91.6292 23.3074 91.5582 23.4536 91.4851 23.6042C91.4094 23.7574 91.3337 23.9107 91.2557 24.0686C91.1805 24.2228 91.1053 24.3771 91.0278 24.536C90.8413 24.9184 90.6538 25.3002 90.4654 25.6817C91.2036 25.0955 91.8499 24.4609 92.4696 23.7508C92.5466 23.665 92.6235 23.5791 92.7028 23.4906C92.9523 23.2034 92.9523 23.2034 93.1733 22.8582C93.8104 21.9832 93.8104 21.9832 94.3847 21.8292C94.8085 21.7654 95.2304 21.736 95.658 21.7114C97.169 21.6241 98.3863 21.0197 99.4598 19.9461C99.8446 19.9066 100.227 19.8747 100.613 19.8479C100.729 19.8394 100.844 19.8309 100.963 19.8221C101.334 19.795 101.704 19.7687 102.075 19.7425C102.326 19.7243 102.576 19.706 102.827 19.6877C103.443 19.6429 104.058 19.5988 104.674 19.5551C104.596 19.5395 104.518 19.5239 104.438 19.5078C103.213 19.2628 101.988 19.0179 100.763 18.773C100.763 18.6869 100.763 18.6009 100.763 18.5122C101.57 18.4747 102.377 18.4375 103.184 18.4009C103.457 18.3883 103.731 18.3757 104.005 18.3629C106.925 18.2269 106.925 18.2269 108.194 18.2515Z" fill="#46B23E"/>
<path d="M96.9587 1.02041C97.2084 1.02306 97.2084 1.02306 97.4631 1.02576C97.868 1.03031 98.2728 1.0367 98.6777 1.04485C98.6777 1.08787 98.6777 1.13088 98.6777 1.1752C99.237 1.21822 99.7962 1.26124 100.372 1.30556C100.528 1.92686 100.417 2.07188 100.112 2.6091C100.026 2.6091 99.9396 2.6091 99.8509 2.6091C99.8509 2.73815 99.8509 2.8672 99.8509 3.00016C99.7649 3.00016 99.6789 3.00016 99.5902 3.00016C99.5902 3.12921 99.5902 3.25826 99.5902 3.39122C99.5042 3.39122 99.4181 3.39122 99.3295 3.39122C99.3458 3.49658 99.3621 3.60193 99.3789 3.71048C99.3063 4.39041 98.9478 4.78932 98.5392 5.32208C98.4618 5.42574 98.3844 5.5294 98.3046 5.63619C98.1517 5.84026 97.9979 6.0437 97.8433 6.24646C97.6697 6.47407 97.4987 6.70364 97.3284 6.93368C96.8969 7.50934 96.8969 7.50934 96.7224 7.69289C96.6364 7.69289 96.5504 7.69289 96.4617 7.69289C96.4216 6.93836 96.5603 6.33229 96.7876 5.61538C96.8187 5.5138 96.8498 5.41223 96.8818 5.30757C96.9579 5.0595 97.0355 4.8119 97.1135 4.5644C96.7061 4.73901 96.491 4.90758 96.2417 5.2732C96.1875 5.351 96.1332 5.4288 96.0773 5.50896C95.919 5.75438 95.919 5.75438 95.81 6.12865C95.7239 6.12865 95.6379 6.12865 95.5492 6.12865C95.5062 6.30071 95.4632 6.47278 95.4189 6.65006C95.3329 6.65006 95.2468 6.65006 95.1582 6.65006C95.134 6.77105 95.134 6.77105 95.1093 6.89448C95.0278 7.17148 95.0278 7.17148 94.7671 7.43219C94.5735 7.49671 94.5735 7.49671 94.3761 7.56254C94.3761 7.64857 94.3761 7.73461 94.3761 7.82325C93.82 7.97154 93.39 8.08395 92.8118 8.08395C92.8118 8.16999 92.8118 8.25602 92.8118 8.34466C92.7312 8.35542 92.6505 8.36617 92.5674 8.37725C92.1996 8.50706 92.1966 8.65272 92.0297 8.99643C91.4703 9.57371 91.0046 9.60219 90.2434 9.62121C90.1343 9.62595 90.0252 9.63069 89.9127 9.63558C89.5647 9.65024 89.2167 9.66155 88.8686 9.67264C88.5224 9.68584 88.1762 9.69973 87.8301 9.7139C87.6152 9.72245 87.4003 9.73034 87.1854 9.73741C86.3143 9.76826 85.4445 9.81268 84.5995 10.0393C84.5995 10.1253 84.5995 10.2113 84.5995 10.3C84.756 10.2963 84.9124 10.2926 85.0736 10.2888C85.9128 10.2891 86.7401 10.3857 87.5732 10.4792C87.7314 10.4957 87.8896 10.5121 88.0526 10.5291C88.2044 10.5459 88.3563 10.5627 88.5127 10.58C88.6499 10.595 88.7872 10.6101 88.9286 10.6255C89.2723 10.6874 89.5138 10.7772 89.8137 10.9517C89.2008 11.1392 88.6165 11.2667 87.9785 11.3474C87.851 11.3637 87.851 11.3637 87.721 11.3804C87.5422 11.4032 87.3635 11.4256 87.1846 11.4477C86.9157 11.481 86.6469 11.5153 86.3781 11.5498C83.7225 11.8874 83.7225 11.8874 82.685 11.8724C82.5769 11.8712 82.4689 11.87 82.3575 11.8688C82.2413 11.8665 82.2413 11.8665 82.1228 11.8642C82.4423 10.6714 83.0616 9.65922 83.687 8.60537C83.7591 8.48102 83.8312 8.35668 83.9055 8.22857C84.321 7.55212 84.6776 7.26919 85.3816 6.91077C85.7157 6.60935 85.7157 6.60935 86.0334 6.259C86.1879 6.10661 86.3427 5.95455 86.4978 5.80276C87.1727 5.13626 87.1727 5.13626 87.5977 4.30369C89.2429 2.93402 91.2772 1.99348 93.3332 1.43591C93.4549 1.40168 93.5766 1.36746 93.702 1.33219C94.8013 1.04748 95.8271 0.997217 96.9587 1.02041Z" fill="#46B23E"/>
<path d="M104.023 2.6091C105.441 3.10949 106.838 4.51012 107.682 5.74116C107.932 6.27126 107.994 6.85508 108.064 7.43219C108.15 7.43219 108.236 7.43219 108.324 7.43219C108.324 7.60426 108.324 7.77633 108.324 7.95361C108.41 7.95361 108.496 7.95361 108.585 7.95361C108.983 8.86078 109.096 9.73423 109.196 10.7155C109.213 10.8644 109.23 11.0134 109.247 11.1669C109.563 14.123 109.563 14.123 108.976 15.2534C108.601 15.3784 108.337 15.4068 107.946 15.4204C107.757 15.4276 107.757 15.4276 107.564 15.435C107.43 15.4396 107.297 15.4442 107.159 15.449C105.932 15.4955 105.932 15.4955 104.707 15.5875C104.003 15.6526 103.295 15.6895 102.589 15.6445C102.36 15.4158 102.388 15.1343 102.361 14.8216C102.364 13.9545 102.731 13.5209 103.315 12.9394C103.445 12.8132 103.576 12.6878 103.708 12.5633C103.969 12.312 104.203 12.0412 104.438 11.7665C104.51 11.6838 104.582 11.6011 104.656 11.5159C104.729 11.4302 104.729 11.4302 104.805 11.3428C104.136 11.3985 103.669 11.5563 103.084 11.8851C102.849 11.9946 102.849 11.9946 102.458 11.9946C102.265 11.4138 102.265 11.4138 102.067 10.8214C101.981 10.8214 101.895 10.8214 101.807 10.8214C101.742 10.6278 101.742 10.6278 101.676 10.4303C101.547 10.3873 101.418 10.3443 101.285 10.3C101.099 10.0775 101.099 10.0775 100.91 9.803C100.664 9.45773 100.472 9.23263 100.136 8.96385C99.8513 8.73573 99.8513 8.73573 99.7506 8.48874C99.7126 8.13672 99.7887 8.04208 100.005 7.76673C100.101 7.64116 100.101 7.64116 100.199 7.51306C100.305 7.38027 100.305 7.38027 100.413 7.24481C100.485 7.15234 100.557 7.05986 100.631 6.96459C100.778 6.77512 100.925 6.58617 101.074 6.39776C101.317 6.08814 101.557 5.77569 101.796 5.46272C102.005 5.1899 102.215 4.91823 102.425 4.64645C102.602 4.41694 102.778 4.18699 102.955 3.95694C103.015 3.87867 103.075 3.80039 103.137 3.71975C103.253 3.56893 103.368 3.41806 103.484 3.26714C103.878 2.75405 103.878 2.75405 104.023 2.6091Z" fill="#46B23E"/>
<path d="M88.2495 13.5588C88.0577 15.3813 88.0577 15.3813 87.3941 15.9541C87.2567 16.0647 87.2567 16.0647 87.1166 16.1776C86.5894 16.6138 86.1208 17.1114 85.6424 17.5998C85.7979 17.5339 85.9533 17.4681 86.1135 17.4002C86.3176 17.3146 86.5218 17.2291 86.726 17.1436C86.8284 17.1 86.9308 17.0565 87.0364 17.0117C87.1351 16.9705 87.2338 16.9293 87.3355 16.8869C87.4717 16.8296 87.4717 16.8296 87.6106 16.7711C87.8585 16.6873 87.8585 16.6873 88.2495 16.6873C88.2872 16.8459 88.3248 17.0046 88.3636 17.168C88.4688 17.5904 88.6056 17.9789 88.7709 18.3819C88.8005 18.5217 88.8301 18.6615 88.8606 18.8056C89.0627 19.3831 89.3643 19.7384 89.7664 20.1921C89.9441 20.4676 89.9441 20.4676 89.9339 20.7329C89.7878 21.0444 89.6121 21.2381 89.3657 21.4778C89.2852 21.5578 89.2047 21.6378 89.1218 21.7202C88.9013 21.9015 88.9013 21.9015 88.6406 21.9015C88.6406 21.9875 88.6406 22.0735 88.6406 22.1622C88.4308 22.3781 88.4308 22.3781 88.1518 22.6184C88.061 22.6977 87.9703 22.777 87.8768 22.8588C87.5978 23.0747 87.5978 23.0747 87.3126 23.2162C87.0057 23.371 86.9406 23.5443 86.8156 23.8568C86.7296 23.8568 86.6436 23.8568 86.5549 23.8568C86.4904 24.0503 86.4904 24.0503 86.4246 24.2478C85.8436 24.7692 85.8436 24.7692 85.5121 24.7692C85.5121 24.8553 85.5121 24.9413 85.5121 25.03C85.4261 25.03 85.34 25.03 85.2514 25.03C85.2514 25.116 85.2514 25.202 85.2514 25.2907C84.9819 25.4543 84.8068 25.5575 84.4876 25.532C83.6764 25.2093 82.919 24.0806 82.514 23.3354C82.4471 23.0803 82.3807 22.8249 82.3256 22.567C82.2496 22.2786 82.1402 22.0385 82.0088 21.7711C81.3588 20.3538 81.1172 18.8873 81.2104 17.3391C81.2193 17.1571 81.2281 16.9752 81.2369 16.7932C81.3301 15.0271 81.3301 15.0271 81.4711 14.6017C81.9354 14.2584 82.4596 14.2934 83.0165 14.2681C83.3706 14.2184 83.629 14.1428 83.9601 14.0202C84.6964 13.7631 85.4307 13.7165 86.2046 13.6647C86.4139 13.6487 86.4139 13.6487 86.6275 13.6324C87.1703 13.592 87.7049 13.5588 88.2495 13.5588Z" fill="#46B23E"/>
<path d="M29.5903 33.1119C30.1066 33.1119 30.6228 33.1119 31.1546 33.1119C31.373 34.0227 31.5122 34.9284 31.6271 35.8575C31.6446 35.9952 31.6621 36.1329 31.6801 36.2748C31.7227 36.6109 31.7647 36.947 31.8064 37.2832C31.8689 37.1615 31.9314 37.0398 31.9958 36.9144C32.227 36.4641 32.4586 36.014 32.6903 35.5639C32.7907 35.3689 32.8909 35.1737 32.9911 34.9786C33.1349 34.6986 33.2789 34.4188 33.4231 34.139C33.468 34.0512 33.513 33.9635 33.5593 33.8732C33.8772 33.2571 33.8772 33.2571 34.0224 33.1119C34.2639 33.1025 34.5058 33.101 34.7475 33.1038C34.8794 33.1049 35.0113 33.1061 35.1472 33.1073C35.2492 33.1088 35.3512 33.1104 35.4563 33.1119C35.6422 33.4838 35.6422 33.8351 35.6803 34.249C35.6885 34.3351 35.6967 34.4212 35.7051 34.5099C35.7402 34.8789 35.7741 35.2479 35.8079 35.6169C35.8328 35.8861 35.8584 36.1552 35.884 36.4242C35.9063 36.6665 35.9063 36.6665 35.9291 36.9136C35.9378 37.2698 35.9378 37.2698 36.108 37.4136C36.1573 37.3064 36.2066 37.1993 36.2574 37.0889C36.4415 36.6891 36.6259 36.2895 36.8106 35.89C36.8902 35.7175 36.9697 35.5449 37.0491 35.3723C37.1637 35.1233 37.2787 34.8745 37.3938 34.6258C37.4627 34.4763 37.5316 34.3268 37.6027 34.1727C37.7838 33.8022 37.9566 33.4496 38.1937 33.1119C38.5741 33.0483 38.5741 33.0483 39.0003 33.0712C39.1419 33.0771 39.2836 33.0829 39.4295 33.089C39.5921 33.1003 39.5921 33.1003 39.7579 33.1119C39.5362 33.8788 39.1782 34.5674 38.8205 35.2775C38.7547 35.4092 38.6888 35.5409 38.6209 35.6765C38.4821 35.9537 38.3431 36.2308 38.2038 36.5078C37.9898 36.9334 37.7766 37.3594 37.5636 37.7856C37.4286 38.0549 37.2936 38.3241 37.1585 38.5934C37.0944 38.7214 37.0303 38.8495 36.9643 38.9814C36.9051 39.0989 36.8459 39.2164 36.785 39.3375C36.7328 39.4414 36.6806 39.5452 36.6268 39.6523C36.4991 39.8903 36.4991 39.8903 36.3687 40.0207C36.1055 40.0301 35.8419 40.0316 35.5785 40.0288C35.3625 40.0271 35.3625 40.0271 35.1421 40.0253C35.0307 40.0237 34.9193 40.0222 34.8045 40.0207C34.7818 39.8381 34.7818 39.8381 34.7587 39.6518C34.7025 39.2016 34.6459 38.7514 34.5889 38.3013C34.5643 38.1063 34.5399 37.9112 34.5157 37.716C34.4809 37.4361 34.4455 37.1562 34.4099 36.8764C34.3887 36.7078 34.3676 36.5392 34.3457 36.3654C34.3242 35.9954 34.3242 35.9954 34.1527 35.8493C33.4645 37.2259 32.7762 38.6024 32.0671 40.0207C31.5509 40.0207 31.0347 40.0207 30.5028 40.0207C30.3149 39.4093 30.1921 38.8336 30.1199 38.1957C30.0988 38.0139 30.0776 37.8321 30.0563 37.6504C30.039 37.5019 30.039 37.5019 30.0213 37.3505C29.9767 36.9839 29.9277 36.6181 29.878 36.2521C29.8601 36.1195 29.8422 35.9868 29.8238 35.8501C29.7883 35.5883 29.7524 35.3266 29.7162 35.0649C29.628 34.4071 29.5701 33.7756 29.5903 33.1119Z" fill="white"/>
<path d="M90.2047 33.1119C90.7209 33.1119 91.2371 33.1119 91.7689 33.1119C91.927 33.4043 91.927 33.4043 92.0882 33.7026C92.2289 33.9619 92.3696 34.2213 92.5103 34.4806C92.5795 34.6086 92.6486 34.7367 92.7198 34.8686C93.1189 35.603 93.5335 36.319 93.9849 37.0225C93.9994 36.9365 94.0138 36.8504 94.0287 36.7618C94.095 36.3679 94.1622 35.9742 94.2294 35.5805C94.252 35.4451 94.2747 35.3098 94.2981 35.1703C94.4183 34.469 94.5533 33.7908 94.7671 33.1119C95.2402 33.1119 95.7134 33.1119 96.201 33.1119C96.1216 34.0098 95.9988 34.8839 95.8298 35.7689C95.8068 35.8914 95.7838 36.014 95.7602 36.1403C95.6876 36.5268 95.6144 36.9132 95.541 37.2995C95.4913 37.5636 95.4417 37.8277 95.3921 38.0918C95.2712 38.7349 95.1497 39.3778 95.0278 40.0206C94.5546 40.0206 94.0814 40.0206 93.5939 40.0206C93.5321 39.9029 93.4702 39.7851 93.4066 39.6637C93.1775 39.2278 92.9475 38.7923 92.7171 38.357C92.6175 38.1684 92.5181 37.9796 92.419 37.7907C92.2767 37.5195 92.1334 37.2488 91.9899 36.9782C91.9456 36.8933 91.9014 36.8085 91.8557 36.721C91.6352 36.2715 91.6352 36.2715 91.2475 35.9797C91.2284 36.0975 91.2094 36.2152 91.1897 36.3366C91.119 36.7722 91.0478 37.2078 90.9762 37.6433C90.9453 37.8321 90.9146 38.0208 90.884 38.2097C90.8402 38.4806 90.7957 38.7513 90.751 39.0221C90.7244 39.1853 90.6978 39.3484 90.6704 39.5165C90.5957 39.8903 90.5957 39.8903 90.4654 40.0206C89.9874 40.0393 89.5097 40.0261 89.0315 40.0206C89.1016 38.773 89.3298 37.5549 89.5544 36.328C89.6186 35.977 89.6818 35.6257 89.7449 35.2744C89.7854 35.0506 89.8259 34.8267 89.8666 34.6028C89.8855 34.4981 89.9043 34.3934 89.9238 34.2856C89.9976 33.8836 90.0752 33.5002 90.2047 33.1119Z" fill="white"/>
<path d="M116.373 33.7229C116.977 34.2902 117.279 34.8059 117.363 35.638C117.399 37.0291 117.102 37.9524 116.145 38.9778C115.088 39.8649 114.018 40.105 112.659 40.0767C111.816 39.9653 111.253 39.579 110.677 38.9697C109.988 38.0188 110.001 36.9669 110.149 35.8493C110.455 34.7424 111.244 33.922 112.23 33.3563C113.611 32.7289 115.165 32.7813 116.373 33.7229ZM112.054 35.4068C111.636 36.0248 111.594 36.6883 111.713 37.4136C111.98 37.9381 112.262 38.2727 112.756 38.5867C113.425 38.7233 114.035 38.6554 114.63 38.3179C115.109 37.969 115.455 37.5981 115.624 37.0225C115.725 36.3729 115.783 35.7516 115.461 35.1594C115.083 34.7022 114.796 34.4693 114.193 34.3752C113.225 34.3187 112.676 34.6866 112.054 35.4068Z" fill="white"/>
<path d="M47.8397 33.1119C48.4235 33.0966 49.0073 33.0875 49.5913 33.0793C49.7556 33.075 49.9198 33.0706 50.0891 33.0661C51.0519 33.056 51.8373 33.1029 52.6628 33.6333C53.1148 34.0854 53.2035 34.598 53.2331 35.222C53.2237 35.9353 52.9635 36.4626 52.5324 37.0225C52.2211 37.3057 51.9269 37.5439 51.4896 37.5439C51.5649 37.69 51.6402 37.836 51.7177 37.9864C51.8155 38.1784 51.9133 38.3703 52.011 38.5623C52.0607 38.6585 52.1105 38.7547 52.1617 38.8538C52.2088 38.9467 52.2558 39.0395 52.3043 39.1352C52.348 39.2205 52.3917 39.3058 52.4367 39.3938C52.5324 39.6296 52.5324 39.6296 52.5324 40.0207C51.9302 40.0207 51.328 40.0207 50.7075 40.0207C50.5548 39.7005 50.4028 39.38 50.2512 39.0593C50.2077 38.9682 50.1642 38.8772 50.1194 38.7833C49.795 38.0949 49.795 38.0949 49.795 37.8047C49.4078 37.8047 49.0207 37.8047 48.6218 37.8047C48.4928 38.5359 48.3637 39.2672 48.2307 40.0207C47.7145 40.0207 47.1983 40.0207 46.6665 40.0207C46.7522 38.5773 47.0498 37.1759 47.3264 35.7597C47.3761 35.5025 47.4258 35.2453 47.4754 34.988C47.5961 34.3625 47.7176 33.7372 47.8397 33.1119ZM49.1432 34.5458C49.099 34.7493 49.0557 34.953 49.0129 35.1568C48.9887 35.2703 48.9645 35.3837 48.9395 35.5005C48.8839 35.8411 48.8726 36.1567 48.8825 36.5011C50.0918 36.6196 50.0918 36.6196 51.2044 36.2567C51.5496 35.9215 51.6118 35.8148 51.6525 35.3361C51.6507 34.9518 51.6507 34.9518 51.4891 34.7179C51.0766 34.4451 50.6382 34.5051 50.1616 34.5214C50.015 34.524 50.015 34.524 49.8655 34.5267C49.6247 34.5313 49.384 34.5383 49.1432 34.5458Z" fill="white"/>
<path d="M22.812 33.1119C23.2872 33.1004 23.7624 33.0936 24.2377 33.0875C24.4375 33.0826 24.4375 33.0826 24.6413 33.0776C25.8375 33.0661 26.8099 33.2689 27.7654 34.0244C28.3649 34.6405 28.5517 35.3059 28.5964 36.1508C28.5734 37.1141 28.1288 38.1249 27.5047 38.8475C25.7478 40.2069 23.7477 40.073 21.6388 40.0207C21.7054 38.5797 22.0229 37.1716 22.2987 35.7598C22.3484 35.5025 22.3981 35.2453 22.4476 34.9881C22.5684 34.3625 22.6899 33.7372 22.812 33.1119ZM24.1155 34.5458C24.0056 35.0724 23.8975 35.5994 23.7896 36.1264C23.7585 36.2753 23.7275 36.4241 23.6954 36.5775C23.666 36.722 23.6366 36.8665 23.6063 37.0154C23.579 37.1479 23.5517 37.2803 23.5236 37.4167C23.4625 37.813 23.4533 38.1865 23.4637 38.5868C24.8071 38.6862 24.8071 38.6862 25.9853 38.1255C26.0565 38.0626 26.1278 37.9998 26.2012 37.935C26.3302 37.8275 26.4593 37.7199 26.5922 37.6091C26.9882 37.0933 26.9412 36.4737 26.9171 35.8504C26.8774 35.4288 26.8774 35.4288 26.5597 35.0428C25.9535 34.6433 25.6036 34.5135 24.8651 34.5295C24.6543 34.5331 24.6543 34.5331 24.4394 34.5367C24.2791 34.5412 24.2791 34.5412 24.1155 34.5458Z" fill="white"/>
<path d="M15.9032 33.1119C16.4463 33.1043 16.9894 33.0997 17.5326 33.0956C17.762 33.0924 17.762 33.0924 17.996 33.089C20.1451 33.0769 20.1451 33.0769 20.987 33.894C21.4326 34.5625 21.3449 35.3321 21.2477 36.1101C20.9749 36.7546 20.6165 37.1009 19.9813 37.3754C19.84 37.431 19.6987 37.4866 19.5531 37.544C19.6284 37.69 19.7036 37.836 19.7812 37.9864C19.879 38.1784 19.9768 38.3704 20.0745 38.5623C20.1242 38.6585 20.174 38.7547 20.2252 38.8539C20.2723 38.9467 20.3193 39.0395 20.3678 39.1352C20.4115 39.2205 20.4552 39.3058 20.5002 39.3938C20.5959 39.6296 20.5959 39.6296 20.5959 40.0207C20.0367 40.0207 19.4775 40.0207 18.9013 40.0207C18.5572 39.3324 18.213 38.6441 17.8585 37.935C17.4713 37.935 17.0842 37.935 16.6853 37.935C16.5562 38.6233 16.4272 39.3115 16.2942 40.0207C15.778 40.0207 15.2618 40.0207 14.73 40.0207C14.703 39.2848 14.8028 38.6251 14.9535 37.906C14.9764 37.7934 14.9992 37.6808 15.0227 37.5648C15.0954 37.2074 15.1693 36.8502 15.2433 36.493C15.3165 36.1353 15.3895 35.7775 15.4624 35.4197C15.5077 35.1978 15.5532 34.976 15.5991 34.7542C15.7114 34.2082 15.8161 33.6627 15.9032 33.1119ZM17.2067 34.5458C17.1622 34.7248 17.119 34.9041 17.0764 35.0835C17.0522 35.1833 17.028 35.2831 17.003 35.386C16.9385 35.7626 16.9372 36.1197 16.946 36.5011C17.2338 36.5118 17.5217 36.5193 17.8096 36.5256C18.0501 36.5324 18.0501 36.5324 18.2954 36.5393C18.8099 36.498 19.1169 36.3806 19.5531 36.1101C19.6973 35.8216 19.709 35.6477 19.716 35.3279C19.7194 35.2365 19.7227 35.1451 19.7262 35.0509C19.7121 34.9703 19.698 34.8896 19.6834 34.8065C19.1892 34.477 18.7959 34.5166 18.2251 34.5295C18.0785 34.5313 18.0785 34.5313 17.929 34.5331C17.6882 34.5362 17.4475 34.5408 17.2067 34.5458Z" fill="white"/>
<path d="M100.56 33.0548C100.707 33.0564 100.707 33.0564 100.856 33.0581C101.725 33.0847 102.312 33.2372 102.944 33.8527C103.719 34.7081 103.832 35.3819 103.803 36.5311C103.748 37.1833 103.581 37.6436 103.24 38.1957C103.196 38.2768 103.152 38.358 103.106 38.4416C102.646 39.1972 101.873 39.6873 101.043 39.9738C100.151 40.1233 99.0176 40.2281 98.2134 39.7518C97.5353 39.2303 96.9872 38.6263 96.7225 37.8046C96.5544 36.5106 96.755 35.488 97.5046 34.4154C98.3557 33.4491 99.2888 33.0368 100.56 33.0548ZM98.8081 35.1975C98.3705 35.82 98.1771 36.3859 98.2867 37.1528C98.5119 37.7732 98.7498 38.2403 99.3295 38.5867C99.9667 38.7034 100.494 38.6561 101.073 38.3667C101.617 37.8878 102.134 37.3502 102.237 36.6075C102.241 35.7876 102.086 35.3911 101.546 34.7657C100.615 34.2422 99.5184 34.3984 98.8081 35.1975Z" fill="white"/>
<path d="M54.6183 33.1119C56.3819 33.1119 58.1456 33.1119 59.9628 33.1119C59.8324 34.4154 59.8324 34.4154 59.7021 34.5458C59.4224 34.5572 59.1423 34.5597 58.8624 34.5585C58.6923 34.5581 58.5221 34.5577 58.3468 34.5572C58.1658 34.5562 57.9848 34.555 57.8038 34.5539C57.6222 34.5533 57.4407 34.5527 57.2592 34.5521C56.8134 34.5506 56.3676 34.5485 55.9218 34.5458C55.8788 34.9329 55.8358 35.3201 55.7914 35.719C56.8669 35.719 57.9423 35.719 59.0503 35.719C59.0073 36.1922 58.9642 36.6653 58.9199 37.1529C57.7585 37.1529 56.597 37.1529 55.4004 37.1529C55.3574 37.626 55.3143 38.0992 55.27 38.5868C56.4745 38.5868 57.679 38.5868 58.9199 38.5868C58.9199 39.6296 58.9199 39.6296 58.7896 40.0206C57.0259 40.0206 55.2622 40.0206 53.4451 40.0206C53.7447 37.6232 53.7447 37.6232 53.9308 36.6763C53.9485 36.5835 53.9662 36.4908 53.9844 36.3953C54.0483 36.0611 54.1134 35.7271 54.1783 35.3931C54.3235 34.6403 54.4687 33.8875 54.6183 33.1119Z" fill="white"/>
<path d="M124.366 33.5926C124.491 33.6773 124.491 33.6773 124.618 33.7637C124.532 33.9788 124.446 34.1939 124.358 34.4155C124.272 34.4155 124.186 34.4155 124.097 34.4155C124.011 34.5875 123.925 34.7596 123.836 34.9369C123.51 34.8826 123.235 34.8344 122.944 34.6746C122.397 34.424 121.815 34.468 121.229 34.5458C120.58 34.7871 120.058 35.195 119.746 35.8285C119.57 36.4373 119.575 37.0507 119.665 37.6743C119.901 38.075 120.038 38.2518 120.447 38.4564C120.705 38.469 120.963 38.4734 121.221 38.4727C121.359 38.4731 121.498 38.4734 121.64 38.4737C122.021 38.4728 122.021 38.4728 122.402 38.3261C122.507 38.0818 122.507 38.0818 122.557 37.7965C122.592 37.6271 122.627 37.4578 122.663 37.2832C122.233 37.2832 121.803 37.2832 121.36 37.2832C121.36 36.8531 121.36 36.4229 121.36 35.9797C122.392 35.9797 123.424 35.9797 124.488 35.9797C124.429 36.5132 124.363 37.0444 124.292 37.5765C124.268 37.8031 124.268 37.8031 124.244 38.0343C124.093 39.1203 124.093 39.1203 123.741 39.4496C123.471 39.5882 123.216 39.6787 122.924 39.76C122.796 39.8126 122.668 39.8652 122.536 39.9193C121.619 40.1551 120.47 40.2079 119.568 39.8975C118.872 39.4793 118.338 38.8606 118.042 38.1C117.75 36.9002 117.907 35.823 118.514 34.7582C119.89 32.7798 122.317 32.4638 124.366 33.5926Z" fill="white"/>
<path d="M129.181 33.1119C130.858 33.1119 132.536 33.1119 134.265 33.1119C134.265 34.0244 134.265 34.0244 134.134 34.5458C132.887 34.5458 131.639 34.5458 130.354 34.5458C130.311 34.9329 130.268 35.3201 130.224 35.719C131.299 35.719 132.374 35.719 133.482 35.719C133.352 37.0225 133.352 37.0225 133.222 37.1529C132.98 37.1643 132.738 37.1668 132.496 37.1656C132.349 37.1652 132.203 37.1648 132.052 37.1643C131.897 37.1632 131.743 37.1621 131.584 37.161C131.429 37.1604 131.274 37.1598 131.115 37.1592C130.731 37.1577 130.347 37.1553 129.963 37.1529C129.877 37.626 129.791 38.0992 129.702 38.5868C130.95 38.5868 132.197 38.5868 133.482 38.5868C133.396 39.0599 133.31 39.5331 133.222 40.0206C131.458 40.0206 129.694 40.0206 127.877 40.0206C128.171 37.9636 128.171 37.9636 128.325 37.1371C128.342 37.0492 128.358 36.9614 128.375 36.8709C128.409 36.6892 128.443 36.5076 128.477 36.326C128.53 36.0502 128.581 35.7742 128.632 35.4982C128.665 35.3194 128.699 35.1406 128.733 34.9618C128.777 34.7243 128.777 34.7243 128.823 34.4819C128.921 34.0202 129.051 33.5657 129.181 33.1119Z" fill="white"/>
<path d="M69.8697 33.1119C71.5904 33.1119 73.3111 33.1119 75.0839 33.1119C75.0409 33.5851 74.9978 34.0583 74.9535 34.5458C73.706 34.5458 72.4585 34.5458 71.1733 34.5458C71.1302 34.9329 71.0872 35.3201 71.0429 35.719C72.1183 35.719 73.1937 35.719 74.3017 35.719C74.2157 36.1922 74.1297 36.6653 74.041 37.1529C72.9226 37.1529 71.8042 37.1529 70.6518 37.1529C70.6518 37.54 70.6518 37.9272 70.6518 38.326C70.6088 38.4121 70.5658 38.4981 70.5215 38.5868C71.726 38.5868 72.9304 38.5868 74.1714 38.5868C74.1069 39.232 74.1069 39.232 74.041 39.8903C72.2774 39.8903 70.5137 39.8903 68.6965 39.8903C68.7793 38.9797 68.8708 38.1074 69.0346 37.2135C69.0544 37.1033 69.0742 36.9931 69.0945 36.8795C69.1359 36.6498 69.1775 36.4201 69.2194 36.1905C69.2837 35.838 69.3469 35.4853 69.4099 35.1326C69.4504 34.9083 69.491 34.684 69.5316 34.4597C69.5505 34.3544 69.5694 34.249 69.5888 34.1405C69.7243 33.4027 69.7243 33.4027 69.8697 33.1119Z" fill="white"/>
<path d="M83.0354 33.1119C83.5085 33.1119 83.9817 33.1119 84.4692 33.1119C84.3997 34.0281 84.2807 34.8078 84.0782 35.719C84.9815 35.719 85.8849 35.719 86.8156 35.719C86.8559 35.434 86.8963 35.149 86.9378 34.8554C87.0203 34.2728 87.1076 33.6919 87.2067 33.1119C87.7229 33.1119 88.2391 33.1119 88.7709 33.1119C88.6901 33.9939 88.5792 34.8624 88.4328 35.7358C88.4131 35.8551 88.3933 35.9745 88.3729 36.0975C88.3315 36.3469 88.2899 36.5963 88.248 36.8457C88.1838 37.2291 88.1207 37.6127 88.0575 37.9963C88.017 38.2395 87.9765 38.4826 87.9358 38.7258C87.917 38.8408 87.8981 38.9558 87.8786 39.0742C87.7431 39.8753 87.7431 39.8753 87.5977 40.0206C87.076 40.0394 86.5556 40.0261 86.0335 40.0206C86.2271 38.6656 86.2271 38.6656 86.4246 37.2832C85.5642 37.2832 84.7039 37.2832 83.8175 37.2832C83.7908 37.4699 83.764 37.6566 83.7365 37.8489C83.7011 38.0922 83.6656 38.3354 83.6301 38.5786C83.6125 38.7019 83.595 38.8251 83.5769 38.9521C83.5597 39.0693 83.5424 39.1865 83.5247 39.3073C83.5011 39.4701 83.5011 39.4701 83.4771 39.6362C83.4264 39.8903 83.4264 39.8903 83.2961 40.0206C83.0545 40.0301 82.8127 40.0316 82.571 40.0288C82.4391 40.0276 82.3072 40.0264 82.1712 40.0252C82.0693 40.0237 81.9673 40.0222 81.8622 40.0206C81.8362 39.2037 81.9315 38.4602 82.0857 37.659C82.12 37.4755 82.12 37.4755 82.1549 37.2883C82.203 37.0317 82.2516 36.7751 82.3006 36.5187C82.3757 36.125 82.4494 35.7311 82.5228 35.3371C82.5699 35.0872 82.617 34.8374 82.6642 34.5875C82.6863 34.4695 82.7084 34.3516 82.7312 34.23C82.7521 34.1212 82.773 34.0123 82.7945 33.9002C82.8127 33.8043 82.8309 33.7085 82.8497 33.6097C82.905 33.3726 82.905 33.3726 83.0354 33.1119Z" fill="white"/>
<path d="M1.17318 33.1119C1.68939 33.1119 2.20559 33.1119 2.73743 33.1119C2.69681 33.3998 2.65605 33.6876 2.61522 33.9755C2.5812 34.2159 2.5812 34.2159 2.54648 34.4613C2.48487 34.8813 2.41616 35.3002 2.34637 35.719C3.24972 35.719 4.15307 35.719 5.0838 35.719C5.108 35.3641 5.108 35.3641 5.13268 35.002C5.18651 34.3436 5.29206 33.7456 5.47486 33.1119C5.99106 33.1119 6.50726 33.1119 7.03911 33.1119C6.68829 35.3795 6.29332 37.6359 5.86592 39.8903C5.34972 39.8903 4.83352 39.8903 4.30168 39.8903C4.37896 38.9886 4.51247 38.1846 4.69274 37.2832C3.78939 37.2832 2.88603 37.2832 1.95531 37.2832C1.82626 38.1436 1.69721 39.0039 1.56425 39.8903C1.04804 39.8903 0.531844 39.8903 0 39.8903C0.080909 38.6587 0.295063 37.4644 0.522879 36.2534C0.58711 35.9117 0.650321 35.5699 0.713382 35.2281C0.753889 35.0102 0.794453 34.7922 0.835079 34.5743C0.853957 34.4725 0.872834 34.3706 0.892284 34.2657C0.96683 33.8707 1.0459 33.4937 1.17318 33.1119Z" fill="white"/>
<path d="M44.3205 33.1119C44.7527 34.7956 45.1651 36.4825 45.5426 38.1794C45.5768 38.3327 45.611 38.486 45.6463 38.644C45.8848 39.7261 45.8848 39.7261 45.8848 40.0207C45.3255 40.0207 44.7663 40.0207 44.1902 40.0207C44.1471 39.5475 44.1041 39.0743 44.0598 38.5868C42.9844 38.5868 41.909 38.5868 40.801 38.5868C40.7149 38.8449 40.6289 39.103 40.5403 39.3689C40.4112 39.6915 40.4112 39.6915 40.2795 40.0207C39.6773 40.0207 39.0751 40.0207 38.4546 40.0207C39.0396 38.9123 39.6832 37.8536 40.3537 36.796C40.5531 36.4808 40.7512 36.1649 40.9491 35.8488C41.0871 35.629 41.2251 35.4092 41.3631 35.1894C41.4592 35.0359 41.4592 35.0359 41.5572 34.8793C41.6799 34.6844 41.8046 34.4907 41.9312 34.2983C42.1079 34.0296 42.1079 34.0296 42.2406 33.749C42.7117 32.8852 43.4228 33.0217 44.3205 33.1119ZM43.017 34.9369C42.8208 35.2787 42.6253 35.6209 42.4304 35.9634C42.3744 36.0607 42.3185 36.158 42.2608 36.2582C42.2079 36.3515 42.155 36.4448 42.1004 36.5408C42.0513 36.6268 42.0021 36.7129 41.9515 36.8015C41.8248 37.0206 41.8248 37.0206 41.8438 37.2832C42.446 37.2832 43.0483 37.2832 43.6687 37.2832C43.6083 36.9203 43.6083 36.9203 43.5465 36.55C43.4569 36.0123 43.3673 35.4746 43.2777 34.9369C43.1916 34.9369 43.1056 34.9369 43.017 34.9369Z" fill="white"/>
<path d="M11.1067 33.0483C11.2584 33.0559 11.4101 33.0634 11.5664 33.0712C11.7958 33.0801 11.7958 33.0801 12.0299 33.0891C12.1466 33.0966 12.2634 33.1042 12.3837 33.112C12.5924 33.9471 12.8012 34.7821 13.01 35.6172C13.044 35.7532 13.044 35.7532 13.0787 35.8919C13.1246 36.0759 13.1705 36.2599 13.2164 36.444C13.3349 36.9194 13.4548 37.3944 13.5775 37.8689C13.6017 37.9634 13.6259 38.0579 13.6509 38.1553C13.697 38.3351 13.7435 38.5147 13.7907 38.6942C13.8977 39.1138 13.9479 39.4526 13.9479 39.8904C13.3887 39.8904 12.8295 39.8904 12.2533 39.8904C12.2103 39.4602 12.1673 39.03 12.1229 38.5868C11.6149 38.5746 11.1076 38.5755 10.5994 38.5787C10.4557 38.5751 10.3119 38.5715 10.1638 38.5677C9.74299 38.5741 9.3965 38.5909 8.99446 38.7172C8.65229 39.0937 8.53146 39.4067 8.34269 39.8904C7.82649 39.8904 7.31029 39.8904 6.77844 39.8904C6.89008 39.4438 6.98679 39.202 7.21788 38.8211C7.28136 38.7158 7.34485 38.6105 7.41026 38.5021C7.51289 38.3343 7.51289 38.3343 7.6176 38.1632C7.68778 38.0473 7.75797 37.9315 7.83028 37.8121C8.32166 37.0032 8.8163 36.1958 9.32906 35.4002C9.57972 35.0085 9.80839 34.6234 10.0006 34.1996C10.5057 33.1399 10.5057 33.1399 11.1067 33.0483ZM11.0801 35.0673C10.8665 35.3842 10.6696 35.6992 10.4772 36.0286C10.3951 36.1653 10.3951 36.1653 10.3112 36.3046C10.0123 36.7625 10.0123 36.7625 9.90693 37.2833C10.5092 37.2833 11.1114 37.2833 11.7319 37.2833C11.6601 36.5174 11.5432 35.8093 11.3408 35.0673C11.2548 35.0673 11.1688 35.0673 11.0801 35.0673Z" fill="white"/>
<path d="M139.316 33.3726C139.545 33.4999 139.774 33.6292 140 33.7636C139.898 34.267 139.683 34.5475 139.348 34.9368C139.279 34.9086 139.209 34.8803 139.137 34.8513C138.375 34.5662 137.685 34.4618 136.871 34.5457C136.702 34.6848 136.702 34.6848 136.733 35.0101C136.736 35.115 136.738 35.2198 136.741 35.3279C136.812 35.3579 136.883 35.388 136.956 35.419C139.238 36.4055 139.238 36.4055 139.609 37.2832C139.662 38.0658 139.463 38.6338 138.957 39.2385C138.186 39.9507 137.513 40.0733 136.49 40.0532C135.509 39.9733 134.842 39.6492 134.134 38.9778C134.322 38.5399 134.541 38.2326 134.916 37.9349C135.31 37.9349 135.527 38.1217 135.861 38.3342C136.393 38.6495 136.781 38.6479 137.393 38.5867C137.522 38.5007 137.651 38.4146 137.784 38.326C137.817 37.9892 137.817 37.9892 137.784 37.6742C137.711 37.6426 137.639 37.6111 137.564 37.5785C137.245 37.4386 136.928 37.2959 136.611 37.1528C136.514 37.1106 136.418 37.0685 136.319 37.025C135.757 36.7656 135.333 36.5525 135.047 35.9796C134.95 35.2654 134.957 34.64 135.226 33.9673C136.417 32.8044 137.844 32.6435 139.316 33.3726Z" fill="white"/>
<path d="M78.9801 32.9516C79.8967 32.8906 80.6697 33.2062 81.4711 33.6334C81.7124 33.8508 81.7124 33.8508 81.8621 34.0244C81.6594 34.522 81.336 34.8316 80.9496 35.1976C80.658 35.0572 80.4039 34.9188 80.1431 34.7251C79.618 34.4684 79.1769 34.4455 78.6033 34.5458C77.9388 34.8091 77.4368 35.2087 77.12 35.855C76.9125 36.5088 76.9665 37.0875 77.202 37.7232C77.434 38.0712 77.5992 38.2383 77.9515 38.4565C78.7419 38.5895 79.3438 38.4616 80.0372 38.0654C80.7287 38.0654 80.844 38.2656 81.3407 38.7172C81.0905 39.3786 80.6021 39.572 79.9893 39.8629C79.0056 40.1908 77.7921 40.2403 76.8272 39.817C76.1139 39.372 75.5993 38.7342 75.3444 37.935C75.1848 36.6196 75.3241 35.5067 76.1265 34.4155C76.9316 33.6105 77.8489 33.0894 78.9801 32.9516Z" fill="white"/>
<path d="M63.2215 33.1119C65.1142 33.1119 67.0069 33.1119 68.957 33.1119C68.914 33.5851 68.871 34.0583 68.8267 34.5458C68.0954 34.5458 67.3641 34.5458 66.6107 34.5458C66.5784 34.8039 66.5461 35.062 66.5129 35.3279C66.3895 36.2763 66.2375 37.2197 66.0811 38.1631C66.0584 38.3012 66.0357 38.4394 66.0122 38.5817C65.9795 38.7767 65.9795 38.7767 65.9462 38.9758C65.9267 39.0924 65.9072 39.2089 65.8871 39.329C65.8285 39.6296 65.8285 39.6296 65.6982 40.0206C65.182 40.0206 64.6658 40.0206 64.1339 40.0206C64.2254 38.8469 64.4412 37.7042 64.6635 36.55C64.7006 36.355 64.7377 36.1599 64.7748 35.9649C64.8646 35.4917 64.9555 35.0188 65.0464 34.5458C64.4012 34.5458 63.7559 34.5458 63.0911 34.5458C63.0748 33.5518 63.0748 33.5518 63.2215 33.1119Z" fill="white"/>
<path d="M105.456 33.1119C105.973 33.1119 106.489 33.1119 107.021 33.1119C106.933 34.2842 106.755 35.4332 106.556 36.5907C106.525 36.7726 106.495 36.9544 106.464 37.1363C106.389 37.5765 106.314 38.0164 106.239 38.4564C107.314 38.4564 108.389 38.4564 109.497 38.4564C109.367 39.4992 109.367 39.4992 109.106 39.7599C108.762 39.7844 108.432 39.7933 108.087 39.79C107.987 39.7899 107.886 39.7899 107.783 39.7898C107.57 39.7894 107.357 39.7884 107.145 39.7868C106.818 39.7844 106.491 39.7841 106.164 39.7841C105.958 39.7835 105.752 39.7827 105.546 39.7818C105.398 39.7816 105.398 39.7816 105.248 39.7814C104.559 39.7751 104.559 39.7751 104.414 39.6296C104.411 38.2083 104.735 36.805 105.008 35.4175C105.052 35.1929 105.095 34.9683 105.138 34.7436C105.243 34.1995 105.35 33.6556 105.456 33.1119Z" fill="white"/>
<path d="M126.182 33.1119C126.699 33.1119 127.215 33.1119 127.747 33.1119C127.374 35.375 126.993 37.6354 126.574 39.8903C126.014 39.8903 125.455 39.8903 124.879 39.8903C125.143 38.2417 125.423 36.5984 125.751 34.9613C125.793 34.7516 125.793 34.7516 125.835 34.5377C126.034 33.5561 126.034 33.5561 126.182 33.1119Z" fill="white"/>
<path d="M132.439 1.30557C134.719 1.30557 136.999 1.30557 139.348 1.30557C139.267 2.1194 139.18 2.90539 139.034 3.70592C139.017 3.80244 139 3.89897 138.982 3.99843C138.928 4.30124 138.873 4.60392 138.819 4.9066C138.781 5.11417 138.744 5.32175 138.707 5.52934C138.617 6.03337 138.527 6.53728 138.436 7.04114C138.393 7.04114 138.35 7.04114 138.305 7.04114C138.323 6.63102 138.343 6.22097 138.362 5.81093C138.367 5.69389 138.373 5.57685 138.378 5.45627C138.386 5.28929 138.386 5.28929 138.394 5.11893C138.399 5.01585 138.404 4.91277 138.409 4.80657C138.436 4.56442 138.436 4.56442 138.566 4.43406C138.596 4.23662 138.62 4.03811 138.639 3.83932C138.65 3.73161 138.661 3.6239 138.672 3.51293C138.684 3.38817 138.684 3.38817 138.696 3.26088C138.782 3.26088 138.868 3.26088 138.957 3.26088C138.956 3.17132 138.954 3.08176 138.952 2.98948C138.951 2.87202 138.95 2.75457 138.949 2.63355C138.947 2.5171 138.946 2.40066 138.944 2.28068C138.957 1.95734 138.957 1.95734 139.087 1.56628C136.98 1.6093 134.872 1.65231 132.7 1.69663C132.372 3.1974 132.372 3.1974 132.179 4.69477C131.6 3.69106 132.205 2.3208 132.439 1.30557Z" fill="#46B23E"/>
<path d="M110.149 25.8121C110.192 25.8121 110.235 25.8121 110.279 25.8121C110.279 26.5434 110.279 27.2747 110.279 28.0281C113.505 28.0926 113.505 28.0926 116.797 28.1585C116.797 27.8143 116.797 27.4702 116.797 27.1156C116.854 26.7572 116.854 26.7572 116.927 26.4639C116.964 26.3147 116.964 26.3147 117.001 26.1624C117.019 26.0898 117.038 26.0172 117.058 25.9425C117.144 25.9425 117.23 25.9425 117.318 25.9425C117.3 26.1597 117.28 26.377 117.261 26.5942C117.251 26.7152 117.24 26.8362 117.229 26.9608C117.181 27.4479 117.118 27.9335 117.058 28.4192C114.649 28.4192 112.24 28.4192 109.758 28.4192C109.904 27.0993 109.904 27.0993 110.027 26.4557C110.05 26.3332 110.073 26.2107 110.096 26.0845C110.114 25.9946 110.131 25.9047 110.149 25.8121Z" fill="#46B23E"/>
<path d="M115.435 1.27837C115.561 1.27585 115.687 1.27334 115.817 1.27075C116.395 1.26325 116.973 1.2568 117.552 1.25278C117.857 1.24997 118.163 1.24552 118.468 1.23941C118.907 1.23071 119.346 1.22711 119.785 1.22462C119.922 1.22099 120.059 1.21736 120.199 1.21362C121.127 1.21626 121.127 1.21626 121.434 1.48519C121.58 1.7017 121.58 1.7017 121.75 2.0877C121.707 2.17373 121.664 2.25977 121.62 2.34841C121.397 2.13539 121.238 1.97442 121.099 1.69664C119.163 1.69664 117.227 1.69664 115.233 1.69664C114.913 2.40905 114.913 2.40905 114.711 3.12238C114.691 3.21884 114.672 3.31529 114.651 3.41466C114.628 3.53598 114.605 3.6573 114.581 3.7823C114.565 3.86686 114.549 3.95143 114.532 4.03855C114.416 4.64796 114.302 5.25782 114.19 5.86796C114.104 5.86796 114.018 5.86796 113.929 5.86796C114.02 4.89754 114.192 3.95494 114.385 3.00018C114.415 2.85113 114.444 2.70209 114.475 2.54852C114.503 2.40721 114.531 2.26589 114.561 2.12029C114.586 1.99191 114.612 1.86353 114.639 1.73127C114.764 1.22229 114.946 1.28743 115.435 1.27837Z" fill="#46B23E"/>
<path d="M108.585 17.9909C108.182 19.1413 107.735 20.2514 107.02 21.2497C106.934 21.2497 106.848 21.2497 106.76 21.2497C106.803 21.0777 106.846 20.9056 106.89 20.7283C106.976 20.7283 107.062 20.7283 107.151 20.7283C107.17 20.6262 107.188 20.524 107.208 20.4187C107.281 20.0766 107.281 20.0766 107.411 19.8159C107.498 19.8159 107.584 19.8159 107.672 19.8159C107.672 19.6438 107.672 19.4717 107.672 19.2944C107.758 19.2944 107.844 19.2944 107.933 19.2944C107.976 18.9933 108.019 18.6922 108.063 18.382C107.85 18.3879 107.85 18.3879 107.632 18.3939C107.092 18.4088 106.553 18.4233 106.013 18.4377C105.782 18.4439 105.55 18.4502 105.319 18.4566C103.8 18.4988 102.283 18.5212 100.763 18.5123C100.763 18.4693 100.763 18.4263 100.763 18.382C106.268 17.9151 106.268 17.9151 108.585 17.9909Z" fill="#46B23E"/>
<path d="M102.328 14.0802C102.371 14.0802 102.414 14.0802 102.458 14.0802C102.501 14.5534 102.544 15.0266 102.588 15.5141C103.503 15.5265 104.399 15.4929 105.311 15.4209C106.096 15.3625 106.883 15.3348 107.67 15.3046C107.782 15.2998 107.895 15.295 108.012 15.2901C108.163 15.2842 108.163 15.2842 108.318 15.2781C108.611 15.2612 108.611 15.2612 108.976 15.1231C109.136 14.6653 109.136 14.6653 109.236 14.2106C109.279 14.2106 109.322 14.2106 109.367 14.2106C109.383 15.2208 109.383 15.2208 109.236 15.5141C108.5 15.7112 107.721 15.7262 106.963 15.783C106.731 15.8005 106.731 15.8005 106.494 15.8183C105.06 15.9187 103.634 15.9313 102.197 15.9052C102.24 15.3029 102.283 14.7007 102.328 14.0802Z" fill="#46B23E"/>
<path d="M84.3387 13.9499C84.3387 13.9929 84.3387 14.0359 84.3387 14.0802C83.6654 14.3047 83.0326 14.3902 82.3248 14.4392C82.0269 14.468 81.7583 14.5202 81.4709 14.6017C81.4951 14.685 81.5193 14.7684 81.5443 14.8542C81.5631 14.9429 81.5819 15.0317 81.6013 15.1231C81.5583 15.1661 81.5152 15.2091 81.4709 15.2534C81.4102 15.8562 81.3817 16.4603 81.3536 17.0654C81.3422 17.3041 81.3284 17.5426 81.3141 17.7811C81.2584 19.3654 81.6628 20.8654 82.4022 22.262C82.5303 22.5964 82.5069 22.7444 82.3834 23.0747C81.4804 21.228 81.0555 19.5422 81.0557 17.4915C81.0554 17.2267 81.0531 16.9619 81.0506 16.697C81.0493 15.8229 81.0707 15.0448 81.3406 14.2106C83.393 13.9113 83.393 13.9113 84.3387 13.9499Z" fill="#46B23E"/>
<path d="M109.497 11.3428C109.54 11.3428 109.583 11.3428 109.627 11.3428C109.785 13.1629 109.822 14.9307 109.236 16.6873C108.075 16.6873 106.913 16.6873 105.717 16.6873C105.674 16.6013 105.631 16.5153 105.586 16.4266C106.748 16.4266 107.909 16.4266 109.106 16.4266C109.106 16.2546 109.106 16.0825 109.106 15.9052C108.525 15.9697 108.525 15.9697 107.933 16.0356C107.933 15.9925 107.933 15.9495 107.933 15.9052C107.546 15.8622 107.158 15.8192 106.76 15.7748C106.76 15.7318 106.76 15.6888 106.76 15.6445C107.577 15.6015 108.394 15.5585 109.236 15.5141C109.339 14.5744 109.402 13.6396 109.44 12.6952C109.446 12.5643 109.451 12.4334 109.457 12.2986C109.471 11.98 109.484 11.6614 109.497 11.3428Z" fill="#46B23E"/>
<path d="M131.397 6.38933C131.44 6.38933 131.483 6.38933 131.527 6.38933C131.484 7.16363 131.441 7.93793 131.397 8.7357C131.31 8.7357 131.224 8.7357 131.136 8.7357C131.142 8.82593 131.148 8.91617 131.154 9.00913C131.19 9.99016 131.021 10.795 130.746 11.7333C130.572 12.3729 130.513 13.019 130.448 13.677C130.368 14.4458 130.201 15.1689 129.963 15.9052C129.877 15.9052 129.791 15.9052 129.702 15.9052C129.799 14.8549 129.99 13.8279 130.187 12.7924C130.222 12.6071 130.257 12.4217 130.292 12.2363C130.383 11.7522 130.475 11.2681 130.566 10.7841C130.66 10.2886 130.753 9.79312 130.847 9.29759C131.03 8.32808 131.213 7.35867 131.397 6.38933Z" fill="#46B23E"/>
<path d="M127.486 26.7246C127.941 26.8763 127.988 26.9709 128.227 27.3682C128.313 27.5071 128.313 27.5071 128.4 27.6488C128.529 27.8978 128.529 27.8978 128.529 28.1585C130.379 28.1155 132.228 28.0724 134.134 28.0281C134.263 27.727 134.392 27.4259 134.525 27.1156C134.611 27.1156 134.697 27.1156 134.786 27.1156C134.768 27.3085 134.748 27.5013 134.729 27.6941C134.718 27.8015 134.708 27.9088 134.697 28.0195C134.656 28.2888 134.656 28.2888 134.525 28.4192C134.329 28.4313 134.132 28.4345 133.936 28.434C133.748 28.434 133.748 28.434 133.556 28.4339C133.42 28.4333 133.284 28.4326 133.144 28.4319C133.005 28.4317 132.866 28.4315 132.723 28.4313C132.278 28.4306 131.834 28.429 131.389 28.4273C131.088 28.4267 130.787 28.4261 130.486 28.4255C129.747 28.4241 129.007 28.4219 128.268 28.4192C128.137 28.186 128.007 27.9524 127.877 27.7185C127.805 27.5885 127.732 27.4584 127.657 27.3244C127.486 26.9853 127.486 26.9853 127.486 26.7246Z" fill="#46B23E"/>
<path d="M87.728 27.7674C88.4935 27.7185 89.105 27.8649 89.8137 28.1584C89.8567 28.2015 89.8997 28.2445 89.944 28.2888C91.7912 28.5329 93.6917 28.4318 95.5493 28.4192C95.1078 28.8243 94.795 28.8616 94.204 28.8667C94.0411 28.8682 93.8782 28.8697 93.7104 28.8712C93.5358 28.8701 93.3612 28.8688 93.1866 28.8672C93.0548 28.8668 93.0548 28.8668 92.9204 28.8664C91.0715 28.8573 89.4537 28.5654 87.728 27.8977C87.728 27.8547 87.728 27.8117 87.728 27.7674Z" fill="#46B23E"/>
<path d="M102.198 13.9499C102.284 13.9929 102.37 14.0359 102.458 14.0802C102.372 14.6825 102.286 15.2847 102.198 15.9052C102.367 15.8958 102.536 15.8864 102.71 15.8767C104.583 15.7789 106.449 15.7595 108.324 15.7748C107.838 16.0988 107.399 16.1194 106.833 16.174C106.635 16.1943 106.437 16.2148 106.239 16.2356C106.108 16.2485 106.108 16.2485 105.974 16.2617C105.71 16.29 105.71 16.29 105.44 16.3815C105.359 16.3964 105.279 16.4113 105.196 16.4266C105.11 16.3406 105.024 16.2545 104.935 16.1659C104.634 16.1197 104.634 16.1197 104.287 16.1165C104.159 16.112 104.031 16.1076 103.899 16.103C103.765 16.0996 103.631 16.0961 103.493 16.0926C103.228 16.0848 102.963 16.0765 102.698 16.0676C102.58 16.0645 102.463 16.0614 102.341 16.0582C102.067 16.0355 102.067 16.0355 101.937 15.9052C101.894 15.1977 102.008 14.624 102.198 13.9499Z" fill="#46B23E"/>
<path d="M114.711 1.04484C115.651 1.02834 116.59 1.01691 117.53 1.00904C117.85 1.00575 118.17 1.0013 118.489 0.99567C118.949 0.98778 119.408 0.98407 119.867 0.981189C120.01 0.977826 120.154 0.974462 120.301 0.970996C120.666 0.970861 121.002 0.97572 121.359 1.04484C121.656 1.35026 121.656 1.35026 121.75 1.69661C121.707 1.82566 121.664 1.95471 121.62 2.08767C121.585 1.98144 121.55 1.87521 121.514 1.76576C121.269 1.41415 121.269 1.41415 120.946 1.37764C120.56 1.3602 120.179 1.36282 119.793 1.37225C119.582 1.37363 119.582 1.37363 119.366 1.37505C118.914 1.3787 118.462 1.38688 118.011 1.39516C117.705 1.39843 117.399 1.40141 117.093 1.40408C116.342 1.41127 115.592 1.42218 114.842 1.4359C114.799 1.65098 114.756 1.86607 114.711 2.08767C114.668 2.08767 114.625 2.08767 114.581 2.08767C114.565 1.33813 114.565 1.33813 114.711 1.04484Z" fill="#46B23E"/>
<path d="M90.5959 23.5961C90.523 24.0188 90.4117 24.2388 90.0745 24.5086C89.9885 24.5086 89.9024 24.5086 89.8138 24.5086C89.7787 24.5863 89.7435 24.664 89.7073 24.7441C89.5534 25.0294 89.4024 25.2092 89.1707 25.4333C89.0968 25.5057 89.023 25.5781 88.9469 25.6528C88.87 25.7269 88.7931 25.801 88.7139 25.8773C88.0324 26.5123 88.0324 26.5123 87.4674 27.246C87.4957 27.5338 87.4957 27.5338 87.5978 27.7674C87.2967 27.6814 86.9955 27.5954 86.6853 27.5067C87.0525 26.6235 87.9281 25.9248 88.6651 25.3396C89.0669 25.0003 89.3948 24.6312 89.7339 24.2306C90.282 23.5961 90.282 23.5961 90.5959 23.5961Z" fill="#46B23E"/>
<path d="M111.061 20.0765C111.104 20.0765 111.147 20.0765 111.192 20.0765C111.114 20.9771 110.991 21.8601 110.83 22.7493C110.807 22.8749 110.785 23.0004 110.762 23.1298C110.715 23.3933 110.668 23.6568 110.62 23.9202C110.548 24.3205 110.477 24.7209 110.406 25.1214C110.36 25.379 110.314 25.6365 110.268 25.8941C110.247 26.0123 110.225 26.1304 110.204 26.2522C110.072 26.979 109.923 27.6991 109.758 28.4192C109.672 28.3762 109.586 28.3331 109.497 28.2888C109.465 27.4252 109.465 27.4252 109.758 26.9853C109.808 26.7344 109.847 26.4813 109.88 26.2276C109.966 25.6136 110.075 25.015 110.214 24.4108C110.37 23.7134 110.467 23.0264 110.54 22.317C110.622 21.5232 110.764 20.8192 111.061 20.0765Z" fill="#46B23E"/>
<path d="M81.7319 12.9071C82.9364 12.9071 84.1409 12.9071 85.3818 12.9071C85.3388 12.9931 85.2958 13.0791 85.2515 13.1678C84.9999 13.2452 84.9999 13.2452 84.672 13.3073C84.553 13.33 84.4341 13.3527 84.3115 13.376C84.1235 13.4101 84.1235 13.4101 83.9316 13.4448C83.8093 13.4685 83.687 13.4922 83.5609 13.5166C82.8966 13.6403 82.2771 13.7173 81.6016 13.6892C81.6446 13.4311 81.6876 13.173 81.7319 12.9071Z" fill="#46B23E"/>
<path d="M109.628 28.4192C112.037 28.4192 114.446 28.4192 116.927 28.4192C116.927 28.5052 116.927 28.5912 116.927 28.6799C114.562 28.6799 112.196 28.6799 109.758 28.6799C109.715 28.5938 109.672 28.5078 109.628 28.4192Z" fill="#46B23E"/>
<path d="M119.535 13.1678C119.621 13.1678 119.707 13.1678 119.795 13.1678C120.015 13.4773 120.015 13.4773 120.186 13.8195C120.143 13.9056 120.1 13.9916 120.056 14.0802C119.97 14.0802 119.884 14.0802 119.795 14.0802C119.56 14.8785 119.483 15.6405 119.436 16.4709C119.404 16.8177 119.404 16.8177 119.274 16.948C119.228 17.2351 119.188 17.5232 119.152 17.8116C118.977 19.0827 118.977 19.0827 118.752 19.6854C118.623 19.75 118.623 19.75 118.492 19.8158C118.573 18.9884 118.702 18.1861 118.866 17.3717C119.141 15.977 119.346 14.5763 119.535 13.1678Z" fill="#46B23E"/>
<path d="M85.2513 13.1677C85.2083 13.2538 85.1653 13.3398 85.121 13.4284C85.9813 13.4715 86.8417 13.5145 87.7281 13.5588C87.7281 13.6018 87.7281 13.6448 87.7281 13.6892C85.9865 13.8532 84.2641 13.9962 82.5139 13.9499C82.7094 13.5589 83.012 13.5253 83.4106 13.3847C84.0271 13.1916 84.6083 13.1524 85.2513 13.1677Z" fill="#46B23E"/>
<path d="M81.4712 12.7767C82.8047 12.7767 84.1382 12.7767 85.5121 12.7767C85.5121 12.9058 85.5121 13.0348 85.5121 13.1678C85.4261 13.1247 85.3401 13.0817 85.2514 13.0374C84.9867 13.0173 84.7214 13.0048 84.4561 12.9962C84.2981 12.9907 84.1402 12.9852 83.9774 12.9796C83.8117 12.9745 83.6461 12.9694 83.4754 12.9641C83.3087 12.9585 83.142 12.9528 82.9702 12.947C82.5575 12.9332 82.1447 12.9199 81.7319 12.9071C81.6889 13.1652 81.6458 13.4233 81.6015 13.6892C82.3113 13.6247 82.3113 13.6247 83.0354 13.5588C82.9064 13.6449 82.7773 13.7309 82.6444 13.8195C82.8594 13.8626 83.0745 13.9056 83.2961 13.9499C83.2961 13.9929 83.2961 14.0359 83.2961 14.0802C82.6378 14.2153 82.009 14.224 81.3408 14.2106C81.2978 14.5547 81.2548 14.8989 81.2105 15.2534C81.1674 15.2534 81.1244 15.2534 81.0801 15.2534C81.0766 15.0606 81.0741 14.8678 81.072 14.675C81.0705 14.5676 81.0689 14.4602 81.0674 14.3496C81.0801 14.0802 81.0801 14.0802 81.2105 13.9499C81.2965 13.5627 81.3825 13.1756 81.4712 12.7767Z" fill="#46B23E"/>
<path d="M103.892 2.34843C104.215 2.41296 104.215 2.41296 104.544 2.47879C104.544 2.56482 104.544 2.65086 104.544 2.7395C104.449 2.74555 104.354 2.75159 104.256 2.75783C103.763 2.90962 103.567 3.21443 103.281 3.61938C103.167 3.77439 103.053 3.92936 102.939 4.08428C102.881 4.16395 102.823 4.24362 102.764 4.3257C102.541 4.62952 102.31 4.92655 102.078 5.22363C101.484 5.98563 100.917 6.76406 100.373 7.56259C100.33 7.39052 100.287 7.21845 100.242 7.04117C100.328 7.04117 100.414 7.04117 100.503 7.04117C100.519 6.9417 100.535 6.84222 100.552 6.73973C100.633 6.3894 100.633 6.3894 100.894 5.99834C100.98 5.99834 101.066 5.99834 101.155 5.99834C101.155 5.91231 101.155 5.82627 101.155 5.73763C101.241 5.73763 101.327 5.73763 101.415 5.73763C101.415 5.6516 101.415 5.56557 101.415 5.47693C101.501 5.47693 101.587 5.47693 101.676 5.47693C101.69 5.40165 101.703 5.32637 101.717 5.24881C101.821 4.90903 101.962 4.69825 102.197 4.4341C102.284 4.4341 102.37 4.4341 102.458 4.4341C102.458 4.30505 102.458 4.17599 102.458 4.04303C102.544 4.04303 102.63 4.04303 102.719 4.04303C102.719 3.91398 102.719 3.78493 102.719 3.65197C102.805 3.60896 102.891 3.56594 102.98 3.52162C103.023 3.39257 103.066 3.26352 103.11 3.13056C103.196 3.08754 103.282 3.04452 103.371 3.0002C103.414 2.87115 103.457 2.7421 103.501 2.60914C103.63 2.60914 103.759 2.60914 103.892 2.60914C103.892 2.52311 103.892 2.43708 103.892 2.34843Z" fill="#46B23E"/>
<path d="M107.803 6.25902C109.698 8.42428 109.554 11.5294 109.497 14.2106C109.454 14.2106 109.411 14.2106 109.367 14.2106C109.356 14.0811 109.346 13.9516 109.335 13.8182C109.296 13.3345 109.255 12.8508 109.214 12.3672C109.197 12.1585 109.18 11.9497 109.163 11.741C109.138 11.4396 109.113 11.1384 109.087 10.8372C109.08 10.745 109.073 10.6527 109.065 10.5577C109.013 9.96648 108.888 9.43278 108.715 8.86609C108.667 8.56265 108.622 8.25859 108.585 7.95362C108.499 7.95362 108.413 7.95362 108.324 7.95362C108.324 7.78155 108.324 7.60948 108.324 7.4322C108.238 7.4322 108.152 7.4322 108.063 7.4322C107.868 6.99278 107.803 6.75379 107.803 6.25902Z" fill="#46B23E"/>
<path d="M88.2494 13.5588C88.2924 13.5588 88.3354 13.5588 88.3797 13.5588C88.4312 14.5026 88.3603 15.3343 87.7305 16.0809C87.4761 16.3362 87.2175 16.5809 86.9459 16.8177C87.3975 16.7531 87.3975 16.7531 87.8583 16.6873C87.4463 17.0257 87.0296 17.2317 86.5385 17.4368C86.401 17.4953 86.2636 17.5538 86.122 17.614C85.7727 17.7301 85.7727 17.7301 85.512 17.5998C85.8536 17.2544 86.196 16.9097 86.5385 16.5651C86.6844 16.4175 86.6844 16.4175 86.8333 16.267C86.9266 16.1733 87.0198 16.0796 87.1159 15.9831C87.2019 15.8964 87.288 15.8097 87.3766 15.7204C87.5976 15.5141 87.5976 15.5141 87.8583 15.3838C87.9403 15.0797 88.0089 14.772 88.0702 14.4632C88.1041 14.2949 88.138 14.1267 88.173 13.9534C88.1982 13.8232 88.2234 13.693 88.2494 13.5588Z" fill="#46B23E"/>
<path d="M88.2494 25.2907C88.4215 25.3337 88.5935 25.3767 88.7708 25.421C88.6105 25.565 88.6105 25.565 88.447 25.7118C88.3051 25.8403 88.1632 25.9687 88.0213 26.0973C87.9511 26.1602 87.8808 26.2231 87.8084 26.288C87.3908 26.6674 87.0261 27.054 86.6852 27.5067C87.1153 27.6358 87.5455 27.7648 87.9887 27.8978C87.9887 27.9408 87.9887 27.9838 87.9887 28.0281C87.3004 28.0281 86.6122 28.0281 85.903 28.0281C85.903 28.1142 85.903 28.2002 85.903 28.2888C85.817 28.2888 85.731 28.2888 85.6423 28.2888C85.697 27.6509 85.9664 27.4114 86.4245 26.9853C86.5078 26.8724 86.5911 26.7595 86.677 26.6431C86.9919 26.2805 87.3017 26.1556 87.728 25.9425C88.0334 25.6099 88.0334 25.6099 88.2494 25.2907Z" fill="#46B23E"/>
<path d="M112.365 12.3857C112.451 12.3857 112.537 12.3857 112.626 12.3857C112.548 13.3318 112.405 14.2534 112.226 15.1852C112.2 15.3223 112.174 15.4593 112.147 15.6005C112.066 16.0335 111.983 16.4663 111.9 16.8992C111.844 17.1947 111.789 17.4902 111.733 17.7857C111.596 18.506 111.459 19.2261 111.322 19.9462C111.279 19.9462 111.236 19.9462 111.192 19.9462C111.235 19.0859 111.278 18.2255 111.322 17.3391C111.365 17.3391 111.408 17.3391 111.452 17.3391C111.495 16.909 111.538 16.4788 111.583 16.0356C111.669 16.0356 111.755 16.0356 111.843 16.0356C111.831 15.7896 111.831 15.7896 111.819 15.5386C111.817 14.9105 111.96 14.3744 112.139 13.7758C112.266 13.3126 112.32 12.8634 112.365 12.3857Z" fill="#46B23E"/>
<path d="M137.393 11.6035C137.436 11.6035 137.479 11.6035 137.523 11.6035C137.45 12.5558 137.332 13.488 137.161 14.4275C137.139 14.5525 137.117 14.6775 137.094 14.8062C137.047 15.0672 137 15.3281 136.952 15.5889C136.879 15.99 136.808 16.3913 136.738 16.7927C136.692 17.0472 136.646 17.3016 136.599 17.556C136.578 17.6763 136.557 17.7966 136.535 17.9205C136.515 18.0307 136.495 18.1409 136.474 18.2544C136.456 18.3517 136.438 18.449 136.42 18.5492C136.397 18.6231 136.374 18.6969 136.35 18.773C136.221 18.8375 136.221 18.8375 136.09 18.9033C136.133 18.3441 136.176 17.7849 136.22 17.2087C136.306 17.2087 136.392 17.2087 136.481 17.2087C136.486 17.0763 136.49 16.9439 136.495 16.8075C136.54 15.8165 136.633 14.9049 136.903 13.9453C137.05 13.3719 137.127 12.7914 137.207 12.2054C137.263 11.8642 137.263 11.8642 137.393 11.6035Z" fill="#46B23E"/>
<path d="M101.504 1.2267C101.718 1.26577 101.718 1.26577 101.937 1.30562C102.023 1.43468 102.109 1.56373 102.198 1.69669C101.897 1.69669 101.595 1.69669 101.285 1.69669C101.113 2.07657 100.943 2.45688 100.772 2.83728C100.723 2.94482 100.675 3.05237 100.624 3.16317C100.555 3.31944 100.555 3.31944 100.483 3.47887C100.44 3.57444 100.397 3.67001 100.353 3.76847C100.247 4.03197 100.174 4.28756 100.112 4.56447C100.069 4.56447 100.026 4.56447 99.9816 4.56447C99.9816 4.26335 99.9816 3.96224 99.9816 3.65199C99.8526 3.69501 99.7235 3.73803 99.5906 3.78235C99.7987 3.20645 100.08 2.6983 100.397 2.17737C100.468 2.05121 100.468 2.05121 100.54 1.92251C100.826 1.45652 100.954 1.31717 101.504 1.2267Z" fill="#46B23E"/>
<path d="M96.7223 4.56439C96.8083 4.60741 96.8944 4.65043 96.983 4.69475C96.7366 5.07002 96.4892 5.44459 96.2416 5.81905C96.1725 5.9244 96.1033 6.02976 96.0321 6.13831C95.831 6.44174 95.6263 6.74211 95.4188 7.04111C95.3396 7.1578 95.3396 7.1578 95.2588 7.27684C94.8336 7.85068 94.3699 8.03986 93.716 8.25503C93.6238 8.28772 93.5317 8.3204 93.4367 8.35407C93.0151 8.50173 92.594 8.63134 92.1599 8.73571C92.2029 8.60666 92.2459 8.47761 92.2903 8.34465C92.4623 8.34465 92.6344 8.34465 92.8117 8.34465C92.8117 8.25862 92.8117 8.17259 92.8117 8.08394C93.3562 7.8765 93.7935 7.7955 94.3759 7.82324C94.3759 7.7372 94.3759 7.65117 94.3759 7.56253C94.4808 7.47918 94.5856 7.39584 94.6937 7.30997C95.0586 7.06583 95.0586 7.06583 95.158 6.65005C95.2441 6.60704 95.3301 6.56402 95.4188 6.5197C95.4618 6.39065 95.5048 6.2616 95.5491 6.12864C95.6351 6.12864 95.7212 6.12864 95.8098 6.12864C95.8231 6.05403 95.8364 5.97942 95.85 5.90256C95.9562 5.55472 96.1157 5.33874 96.3394 5.05322C96.4108 4.96114 96.4822 4.86905 96.5558 4.77418C96.6107 4.70495 96.6657 4.63572 96.7223 4.56439Z" fill="#46B23E"/>
<path d="M96.9587 0.740351C97.2951 0.743457 97.6313 0.743024 97.9676 0.742165C98.1837 0.742891 98.3998 0.743817 98.6158 0.744965C98.7153 0.744846 98.8147 0.744728 98.9171 0.744605C99.4939 0.752225 99.9666 0.831835 100.503 1.04488C100.503 1.0879 100.503 1.13091 100.503 1.17523C100.342 1.17792 100.18 1.18061 100.014 1.18338C99.9234 1.18489 99.8326 1.18641 99.7391 1.18796C99.4601 1.17523 99.4601 1.17523 99.2195 1.11092C97.5102 0.708938 95.5426 1.07561 93.8549 1.43594C93.5944 1.48082 93.3338 1.52481 93.0728 1.5663C93.1158 1.43725 93.1588 1.3082 93.2031 1.17523C94.3562 0.64531 95.7187 0.728082 96.9587 0.740351Z" fill="#46B23E"/>
<path d="M88.7711 18.6427C89.1314 19.0831 89.4633 19.5338 89.7818 20.0047C89.9574 20.244 89.9574 20.244 90.3353 20.4676C90.2342 21.2676 89.4559 21.7709 88.9014 22.2926C88.8009 22.3875 88.7005 22.4824 88.5969 22.5803C87.9123 23.205 87.9123 23.205 87.4675 23.205C87.5887 23.0548 87.7112 22.9057 87.8341 22.7569C87.9022 22.6738 87.9703 22.5906 88.0404 22.5049C88.2497 22.2926 88.2497 22.2926 88.6407 22.1622C88.6407 22.0762 88.6407 21.9901 88.6407 21.9015C88.8977 21.6638 89.1695 21.4492 89.4427 21.2304C89.7112 20.9613 89.8139 20.8489 89.8139 20.4676C89.5992 20.1359 89.5992 20.1359 89.3006 19.8158C88.7711 19.22 88.7711 19.22 88.7711 18.6427Z" fill="#46B23E"/>
<path d="M139.088 2.6091C139.131 2.6091 139.174 2.6091 139.218 2.6091C139.323 3.86777 139.141 5.04738 138.917 6.28345C138.889 6.4407 138.861 6.59795 138.833 6.75996C138.804 6.90836 138.776 7.05677 138.747 7.20967C138.722 7.34346 138.697 7.47725 138.671 7.61509C138.562 7.9678 138.459 8.11552 138.175 8.34467C138.271 7.12932 138.488 5.94196 138.705 4.74364C138.742 4.53607 138.779 4.32849 138.816 4.1209C138.906 3.61687 138.997 3.11296 139.088 2.6091Z" fill="#46B23E"/>
<path d="M96.071 0.914506C97.7752 0.868557 99.3615 0.905316 101.024 1.30557C100.813 1.93103 100.465 2.43538 100.096 2.97573C100.035 3.06604 99.9737 3.15636 99.9109 3.24942C99.7612 3.47086 99.6108 3.69181 99.4602 3.91264C99.4172 3.74058 99.3742 3.56851 99.3299 3.39123C99.4159 3.39123 99.502 3.39123 99.5906 3.39123C99.5906 3.26218 99.5906 3.13313 99.5906 3.00017C99.6766 3.00017 99.7627 3.00017 99.8513 3.00017C99.8513 2.87112 99.8513 2.74207 99.8513 2.60911C99.9373 2.60911 100.023 2.60911 100.112 2.60911C100.213 2.21889 100.293 1.83256 100.373 1.43592C99.6845 1.3929 98.9962 1.34989 98.2871 1.30557C98.2871 1.26255 98.2871 1.21953 98.2871 1.17521C97.5558 1.1322 96.8245 1.08918 96.071 1.04486C96.071 1.00184 96.071 0.958827 96.071 0.914506Z" fill="#46B23E"/>
<path d="M87.5978 9.90884C87.5978 9.99488 87.5978 10.0809 87.5978 10.1696C88.334 10.4096 89.0427 10.5017 89.8138 10.5606C89.8138 10.6466 89.8138 10.7327 89.8138 10.8213C88.1185 10.6534 86.424 10.48 84.73 10.2999C85.5261 9.76916 86.6632 9.89121 87.5978 9.90884Z" fill="#46B23E"/>
<path d="M106.629 21.2497C106.715 21.2497 106.801 21.2497 106.89 21.2497C106.372 22.7256 104.875 24.2338 103.631 25.1603C103.502 25.1173 103.373 25.0743 103.24 25.03C103.369 24.987 103.498 24.9439 103.631 24.8996C103.669 24.8243 103.706 24.7491 103.745 24.6715C103.943 24.2749 104.216 24.0212 104.544 23.7264C104.63 23.7264 104.716 23.7264 104.804 23.7264C104.89 23.5544 104.976 23.3823 105.065 23.205C105.151 23.205 105.237 23.205 105.326 23.205C105.326 23.076 105.326 22.9469 105.326 22.814C105.412 22.814 105.498 22.814 105.586 22.814C105.672 22.6419 105.758 22.4698 105.847 22.2925C105.933 22.2925 106.019 22.2925 106.108 22.2925C106.151 22.1205 106.194 21.9484 106.238 21.7711C106.324 21.7711 106.41 21.7711 106.499 21.7711C106.542 21.5991 106.585 21.427 106.629 21.2497Z" fill="#46B23E"/>
<path d="M101.285 1.56627C101.59 1.60372 101.894 1.64701 102.197 1.69662C101.546 2.56565 100.894 3.43467 100.242 4.3037C100.112 4.04299 100.112 4.04299 100.191 3.80007C100.234 3.70397 100.278 3.60786 100.323 3.50885C100.393 3.3522 100.393 3.3522 100.465 3.19238C100.515 3.08324 100.565 2.97411 100.617 2.86166C100.666 2.75202 100.715 2.64238 100.766 2.52941C101.134 1.71742 101.134 1.71742 101.285 1.56627Z" fill="#46B23E"/>
<path d="M109.106 39.1082C109.149 39.1082 109.192 39.1082 109.236 39.1082C109.236 39.4093 109.236 39.7104 109.236 40.0207C107.602 40.0207 105.967 40.0207 104.283 40.0207C104.283 39.8916 104.283 39.7626 104.283 39.6296C106.67 39.6941 106.67 39.6941 109.106 39.76C109.106 39.5449 109.106 39.3298 109.106 39.1082Z" fill="white"/>
<path d="M136.089 18.9033C136.132 18.9033 136.176 18.9033 136.22 18.9033C136.124 20.1187 135.907 21.306 135.69 22.5043C135.653 22.7119 135.616 22.9195 135.579 23.1271C135.489 23.6311 135.398 24.135 135.307 24.6389C135.264 24.6389 135.221 24.6389 135.177 24.6389C135.242 23.4774 135.242 23.4774 135.307 22.2925C135.393 22.2925 135.479 22.2925 135.568 22.2925C135.565 22.2072 135.562 22.1218 135.559 22.0338C135.514 19.7664 135.514 19.7664 136.089 18.9033Z" fill="#46B23E"/>
<path d="M108.194 6.78038C108.28 6.78038 108.366 6.78038 108.455 6.78038C108.583 7.03192 108.71 7.28374 108.834 7.53704C108.951 7.77288 109.073 8.00618 109.196 8.23871C109.49 8.92157 109.465 9.6983 109.497 10.4303C109.583 10.4303 109.669 10.4303 109.758 10.4303C109.888 11.0467 109.884 11.6156 109.831 12.2389C109.825 12.3287 109.818 12.4184 109.811 12.5109C109.794 12.7299 109.776 12.9488 109.758 13.1677C109.715 13.1677 109.672 13.1677 109.628 13.1677C109.626 13.0692 109.624 12.9708 109.622 12.8693C109.532 10.7827 109.041 8.69 108.194 6.78038Z" fill="#46B23E"/>
<path d="M124.488 21.38C124.574 21.38 124.66 21.38 124.749 21.38C125.27 22.0701 125.27 22.0701 125.27 22.5532C125.356 22.5532 125.442 22.5532 125.531 22.5532C125.597 22.6886 125.663 22.824 125.731 22.9636C126.186 23.8874 126.642 24.7967 127.196 25.6669C127.37 25.9666 127.495 26.27 127.616 26.5941C127.487 26.6587 127.487 26.6587 127.356 26.7245C127.31 26.6406 127.265 26.5568 127.219 26.4704C126.037 24.2774 126.037 24.2774 124.819 22.1048C124.488 21.5235 124.488 21.5235 124.488 21.38Z" fill="#46B23E"/>
<path d="M90.8566 9.51784C90.8566 9.56085 90.8566 9.60387 90.8566 9.64819C90.6001 9.67086 90.6001 9.67086 90.3384 9.69399C89.7038 9.75017 89.0693 9.8069 88.4347 9.8638C88.1601 9.88835 87.8855 9.91275 87.6109 9.937C87.2161 9.97188 86.8213 10.0073 86.4266 10.0428C86.2424 10.0589 86.2424 10.0589 86.0546 10.0753C85.9398 10.0858 85.825 10.0962 85.7067 10.1069C85.5556 10.1204 85.5556 10.1204 85.4015 10.1341C85.1259 10.169 84.8673 10.2268 84.5996 10.3C84.5996 10.2139 84.5996 10.1279 84.5996 10.0393C84.9592 9.84051 85.2486 9.73949 85.6572 9.70166C85.8114 9.68732 85.8114 9.68732 85.9686 9.67269C86.5195 9.63123 87.0703 9.59974 87.6222 9.57487C87.7408 9.56933 87.8593 9.5638 87.9815 9.55809C88.9406 9.51604 89.8966 9.50331 90.8566 9.51784Z" fill="#46B23E"/>
<path d="M88.6407 3.65197C88.5836 3.69716 88.5266 3.74235 88.4678 3.78892C87.3842 4.65037 86.3266 5.50416 85.3818 6.51976C85.3388 6.43372 85.2958 6.34769 85.2515 6.25905C85.2945 6.17302 85.3375 6.08698 85.3818 5.99834C85.4679 5.99834 85.5539 5.99834 85.6425 5.99834C85.6855 5.82628 85.7286 5.65421 85.7729 5.47693C85.8589 5.47693 85.9449 5.47693 86.0336 5.47693C86.0336 5.34788 86.0336 5.21883 86.0336 5.08587C86.2194 4.9051 86.2194 4.9051 86.4654 4.73554C86.5455 4.67858 86.6257 4.62161 86.7083 4.56292C86.9461 4.4341 86.9461 4.4341 87.3371 4.4341C87.3371 4.34806 87.3371 4.26203 87.3371 4.17339C87.7506 3.70294 88.0028 3.43936 88.6407 3.65197Z" fill="#46B23E"/>
<path d="M101.415 10.3C101.544 10.343 101.673 10.386 101.806 10.4304C101.806 10.5594 101.806 10.6885 101.806 10.8214C101.892 10.8214 101.978 10.8214 102.067 10.8214C102.196 11.2086 102.325 11.5957 102.458 11.9946C102.915 11.8027 103.351 11.6141 103.786 11.3754C104.189 11.1963 104.274 11.2161 104.674 11.3428C104.311 11.5392 103.947 11.7344 103.582 11.9294C103.479 11.9854 103.375 12.0413 103.269 12.099C103.12 12.1784 103.12 12.1784 102.968 12.2594C102.831 12.3331 102.831 12.3331 102.691 12.4083C102.458 12.516 102.458 12.516 102.197 12.516C102.174 12.4325 102.15 12.349 102.126 12.2629C101.929 11.5848 101.709 10.9425 101.415 10.3Z" fill="#46B23E"/>
<path d="M87.4674 4.43407C87.4674 4.98978 87.1445 5.23143 86.783 5.6154C86.719 5.68606 86.655 5.75671 86.589 5.82951C86.2541 6.19081 85.9619 6.45052 85.5121 6.65008C85.4718 6.73611 85.4314 6.82215 85.3899 6.91079C85.1994 7.26924 84.9759 7.31336 84.5996 7.4322C85.0038 6.77235 85.4821 6.25359 86.0335 5.71316C86.1138 5.63293 86.1941 5.55269 86.2769 5.47002C86.6555 5.09507 87.0267 4.73702 87.4674 4.43407Z" fill="#46B23E"/>
<path d="M80.9498 15.2534C80.9928 15.2534 81.0358 15.2534 81.0802 15.2534C81.0851 15.4209 81.0851 15.4209 81.09 15.5917C81.1026 16.0121 81.1155 16.4323 81.1287 16.8526C81.1343 17.0334 81.1397 17.2142 81.145 17.3949C81.1751 18.4234 81.2167 19.4454 81.3409 20.4676C81.2548 20.4676 81.1688 20.4676 81.0802 20.4676C80.7929 19.5433 80.7847 18.677 80.795 17.7139C80.7951 17.5635 80.7952 17.4131 80.7953 17.2581C80.7988 16.5725 80.8238 15.9291 80.9498 15.2534Z" fill="#46B23E"/>
<path d="M109.106 15.9052C109.106 16.0773 109.106 16.2494 109.106 16.4267C107.945 16.4267 106.783 16.4267 105.586 16.4267C105.629 16.3406 105.672 16.2546 105.717 16.166C105.973 16.1124 105.973 16.1124 106.305 16.0835C106.426 16.0725 106.546 16.0616 106.669 16.0504C106.796 16.0401 106.923 16.0299 107.053 16.0193C107.177 16.008 107.302 15.9968 107.43 15.9852C107.991 15.936 108.543 15.8993 109.106 15.9052Z" fill="#46B23E"/>
<path d="M98.1564 21.1194C97.0909 21.6766 96.1532 21.8652 94.9628 21.9264C94.3209 21.9646 94.3209 21.9646 93.7814 22.3002C93.7195 22.3837 93.6577 22.4672 93.594 22.5532C93.6739 22.1672 93.7574 21.9822 93.9851 21.6408C94.3787 21.5924 94.3787 21.5924 94.8731 21.5837C95.7355 21.5547 96.4666 21.3832 97.2821 21.0858C97.644 20.9865 97.8106 20.989 98.1564 21.1194Z" fill="#46B23E"/>
<path d="M135.568 22.5533C135.611 22.5533 135.654 22.5533 135.698 22.5533C135.684 23.0069 135.667 23.4603 135.649 23.9138C135.645 24.0408 135.641 24.1677 135.637 24.2985C135.57 25.9792 135.57 25.9792 135.307 26.5942C135.178 26.6372 135.049 26.6803 134.916 26.7246C135.075 25.3205 135.291 23.9389 135.568 22.5533Z" fill="#46B23E"/>
<path d="M130.223 11.9946C130.266 11.9946 130.309 11.9946 130.354 11.9946C130.275 12.9464 130.132 13.8754 129.954 14.8135C129.93 14.9444 129.906 15.0753 129.881 15.2101C129.822 15.5288 129.762 15.8474 129.702 16.1659C129.315 15.8125 129.196 15.497 129.05 14.9927C129.136 14.9927 129.222 14.9927 129.311 14.9927C129.354 15.0788 129.397 15.1648 129.441 15.2534C129.465 15.1165 129.488 14.9795 129.513 14.8384C129.686 13.8608 129.873 12.9276 130.223 11.9946Z" fill="#46B23E"/>
<path d="M87.5977 23.205C87.3852 23.7753 86.9555 24.1128 86.5142 24.5086C86.44 24.5764 86.3658 24.6443 86.2894 24.7143C85.4362 25.4901 85.4362 25.4901 84.9907 25.8121C84.6892 25.7795 84.6892 25.7795 84.4692 25.6817C84.4692 25.5957 84.4692 25.5097 84.4692 25.421C84.7273 25.378 84.9854 25.335 85.2514 25.2907C85.2514 25.2046 85.2514 25.1186 85.2514 25.03C85.3374 25.03 85.4234 25.03 85.5121 25.03C85.5121 24.9439 85.5121 24.8579 85.5121 24.7693C85.5954 24.7558 85.6788 24.7424 85.7646 24.7285C85.8534 24.699 85.9421 24.6694 86.0335 24.6389C86.0765 24.5099 86.1195 24.3808 86.1638 24.2478C86.357 24.0799 86.5508 23.9123 86.7514 23.7534C86.9596 23.5917 86.9596 23.5917 87.1741 23.3598C87.337 23.205 87.337 23.205 87.5977 23.205Z" fill="#46B23E"/>
</svg>
