<svg width="17" height="20" viewBox="0 0 17 20" fill="none" xmlns="http://www.w3.org/2000/svg">
<path d="M8.72197 0H8.58153C5.70148 0 3.36386 2.08326 3.36386 4.64982V6.42481H2.87751C1.65238 6.42481 0.651794 7.30812 0.651794 8.40813V12.8666C0.651983 16.8 4.24288 20 8.65638 20C13.0607 20 16.6518 16.8001 16.6518 12.8666V8.40813C16.6518 7.30812 15.6512 6.42481 14.4261 6.42481H13.9397L13.9399 4.64982C13.9399 2.08304 11.6022 0 8.72225 0H8.72197ZM5.23401 4.64982C5.23401 2.99981 6.73002 1.66644 8.58154 1.66644H8.72198C10.5735 1.66644 12.0695 2.99981 12.0695 4.64982V6.41643H5.23422L5.23401 4.64982ZM5.70152 12.9582C5.46023 13.4737 4.67188 13.6654 4.17723 13.2248C3.82171 12.94 3.80493 12.3482 4.17723 12.0499C4.54614 11.685 5.2491 11.7755 5.49565 12.0499C5.79688 12.3181 5.82122 12.7013 5.70152 12.9582ZM9.31108 13.2248C8.99062 13.5419 8.32575 13.5552 7.99267 13.2248C7.63601 12.939 7.6215 12.3474 7.99267 12.0499C8.22491 11.79 8.89601 11.6638 9.31108 12.0499C9.72015 12.4142 9.6306 12.9688 9.31108 13.2248ZM13.1263 13.2248C12.8079 13.5398 12.1806 13.5572 11.8077 13.2248C11.4652 12.9498 11.4039 12.4099 11.8077 12.0499C12.1585 11.7029 12.8575 11.7507 13.1263 12.0499C13.5371 12.4166 13.4436 12.9701 13.1263 13.2248Z" fill="#D0D0D0"/>
</svg>
