<svg width="18" height="19" viewBox="0 0 18 19" fill="none" xmlns="http://www.w3.org/2000/svg">
<path d="M13.8435 18.5C13.2682 18.5 12.0641 18.4044 10.4636 17.7638C8.51027 16.9821 6.5823 15.6461 4.73305 13.793C1.04517 10.0972 -0.309224 7.34509 0.0580352 4.29345C0.102975 3.89427 0.201339 3.49712 0.357997 3.08316C0.358626 3.08142 0.359254 3.07969 0.36004 3.07812C0.510886 2.69247 0.705256 2.3344 0.938765 2.01141C0.962335 1.93662 1.0035 1.86765 1.05976 1.81095L1.80015 1.06469C2.16375 0.70015 2.64267 0.5 3.14992 0.5C3.63733 0.5 4.09272 0.68723 4.43195 1.0272L7.05904 3.6604C7.77413 4.378 7.75828 5.56076 7.02368 6.29706L5.96322 7.35949C6.4098 8.16481 7.02336 9.2474 8.14811 10.3746C9.2741 11.5038 10.3541 12.1168 11.1569 12.5631L12.2164 11.5016C12.5786 11.1386 13.0574 10.9385 13.5644 10.9385C14.0515 10.9385 14.5069 11.1252 14.8466 11.4644L17.4743 14.0981C18.1887 14.8161 18.1729 15.9992 17.4396 16.7354C17.4383 16.7368 17.4369 16.7381 17.4355 16.7393L16.6855 17.4754C16.634 17.5259 16.5741 17.5629 16.5103 17.5865C16.1832 17.8264 15.8206 18.0248 15.431 18.1773C15.0301 18.3332 14.6329 18.4334 14.2152 18.4835C14.213 18.4838 14.2108 18.4839 14.2085 18.4843C14.164 18.489 14.0388 18.5 13.8433 18.5L13.8435 18.5ZM1.28222 3.4373C1.15573 3.77192 1.07685 4.08971 1.04087 4.40842C0.714034 7.12365 1.98649 9.63813 5.4327 13.0917C9.52203 17.1898 12.9042 17.5079 13.8435 17.5079C13.992 17.5079 14.0795 17.5002 14.1016 17.498C14.4344 17.4578 14.7518 17.3775 15.0721 17.2529C15.4137 17.1193 15.7411 16.9333 16.0185 16.7158C16.043 16.6966 16.0689 16.6801 16.0956 16.6661L16.7411 16.0326C17.0882 15.6822 17.1031 15.129 16.7741 14.7982L14.1477 12.1657C13.9952 12.0136 13.788 11.9295 13.5645 11.9295C13.3218 11.9295 13.0916 12.0264 12.9162 12.2021L11.5927 13.5283C11.4369 13.6843 11.1969 13.7184 11.004 13.6117C10.9193 13.565 10.8317 13.5162 10.7397 13.4644C9.88156 12.9879 8.7034 12.3336 7.44856 11.0751C6.19433 9.81828 5.53941 8.63632 5.06109 7.7734L5.03548 7.7271C4.99588 7.6553 4.95739 7.5857 4.91936 7.51908C4.80843 7.32477 4.84111 7.08021 4.99934 6.92198L6.32381 5.59546C6.67311 5.24541 6.68882 4.69158 6.35916 4.36074L3.73239 1.72787C3.57997 1.57528 3.37319 1.49119 3.15005 1.49119C2.90728 1.49119 2.67675 1.58819 2.50109 1.7644L1.87852 2.39174C1.86296 2.42465 1.84363 2.4563 1.82038 2.4859C1.60071 2.76699 1.41969 3.0868 1.28236 3.43703L1.28222 3.4373Z" fill="#D0D0D0"/>
</svg>
